<?xml version="1.0" encoding="utf-8" standalone="no"?>
<!DOCTYPE svg PUBLIC "-//W3C//DTD SVG 1.1//EN"
  "http://www.w3.org/Graphics/SVG/1.1/DTD/svg11.dtd">
<!-- Created with matplotlib (http://matplotlib.org/) -->
<svg height="345pt" version="1.1" viewBox="0 0 460 345" width="460pt" xmlns="http://www.w3.org/2000/svg" xmlns:xlink="http://www.w3.org/1999/xlink">
 <defs>
  <style type="text/css">
*{stroke-linecap:butt;stroke-linejoin:round;}
  </style>
 </defs>
 <g id="figure_1">
  <g id="patch_1">
   <path d="M 0 345.6 
L 460.8 345.6 
L 460.8 0 
L 0 0 
z
" style="fill:#ffffff;"/>
  </g>
  <g id="axes_1">
   <g id="line2d_1">
    <path clip-path="url(#p3116385bf4)" d="M 33.054545 172.8 
L 33.054545 317.781818 
M 33.054545 27.818182 
L 33.054545 172.8 
M 230.4 317.781818 
L 33.054545 317.781818 
M 230.4 317.781818 
L 33.054545 172.8 
M 230.4 172.8 
L 33.054545 172.8 
M 230.4 172.8 
L 230.4 317.781818 
M 230.4 27.818182 
L 33.054545 172.8 
M 230.4 27.818182 
L 33.054545 27.818182 
M 230.4 27.818182 
L 230.4 172.8 
M 427.745455 317.781818 
L 230.4 317.781818 
M 427.745455 172.8 
L 230.4 317.781818 
M 427.745455 172.8 
L 230.4 172.8 
M 427.745455 172.8 
L 230.4 27.818182 
M 427.745455 172.8 
L 427.745455 317.781818 
M 427.745455 27.818182 
L 230.4 27.818182 
M 427.745455 27.818182 
L 427.745455 172.8 
" style="fill:none;stroke:#000000;stroke-linecap:square;stroke-width:2;"/>
   </g>
   <g id="line2d_2">
    <path clip-path="url(#p3116385bf4)" d="M 33.054545 172.8 
L 33.054545 317.781818 
M 33.054545 27.818182 
L 33.054545 172.8 
M 230.4 317.781818 
L 33.054545 317.781818 
M 230.4 317.781818 
L 33.054545 172.8 
M 230.4 172.8 
L 33.054545 172.8 
M 230.4 172.8 
L 230.4 317.781818 
M 230.4 27.818182 
L 33.054545 172.8 
M 230.4 27.818182 
L 33.054545 27.818182 
M 230.4 27.818182 
L 230.4 172.8 
M 427.745455 317.781818 
L 230.4 317.781818 
M 427.745455 172.8 
L 230.4 317.781818 
M 427.745455 172.8 
L 230.4 172.8 
M 427.745455 172.8 
L 230.4 27.818182 
M 427.745455 172.8 
L 427.745455 317.781818 
M 427.745455 27.818182 
L 230.4 27.818182 
M 427.745455 27.818182 
L 427.745455 172.8 
" style="fill:none;stroke:#000000;stroke-linecap:square;stroke-width:2;"/>
   </g>
   <g id="patch_2">
    <path clip-path="url(#p3116385bf4)" d="M 33.054545 222.093818 
L 38.974909 230.792727 
L 33.251891 230.792727 
L 33.251891 317.781818 
L 32.8572 317.781818 
L 32.8572 230.792727 
L 27.134182 230.792727 
z
" style="stroke:#000000;stroke-linejoin:miter;"/>
   </g>
   <g id="patch_3">
    <path clip-path="url(#p3116385bf4)" d="M 33.054545 77.112 
L 38.974909 85.810909 
L 33.251891 85.810909 
L 33.251891 172.8 
L 32.8572 172.8 
L 32.8572 85.810909 
L 27.134182 85.810909 
z
" style="stroke:#000000;stroke-linejoin:miter;"/>
   </g>
   <g id="patch_4">
    <path clip-path="url(#p3116385bf4)" d="M 159.834477 265.940149 
L 147.275489 262.86462 
L 151.322274 259.891609 
L 32.915001 172.902518 
L 33.19409 172.697482 
L 151.601362 259.686573 
L 155.648147 256.713562 
z
" style="stroke:#000000;stroke-linejoin:miter;"/>
   </g>
   <g id="patch_5">
    <path clip-path="url(#p3116385bf4)" d="M 163.302545 317.781818 
L 151.461818 322.131273 
L 151.461818 317.9268 
L 33.054545 317.9268 
L 33.054545 317.636836 
L 151.461818 317.636836 
L 151.461818 313.432364 
z
" style="stroke:#000000;stroke-linejoin:miter;"/>
   </g>
   <g id="patch_6">
    <path clip-path="url(#p3116385bf4)" d="M 163.302545 172.8 
L 151.461818 177.149455 
L 151.461818 172.944982 
L 33.054545 172.944982 
L 33.054545 172.655018 
L 151.461818 172.655018 
L 151.461818 168.450545 
z
" style="stroke:#000000;stroke-linejoin:miter;"/>
   </g>
   <g id="patch_7">
    <path clip-path="url(#p3116385bf4)" d="M 230.4 222.093818 
L 236.320364 230.792727 
L 230.597345 230.792727 
L 230.597345 317.781818 
L 230.202655 317.781818 
L 230.202655 230.792727 
L 224.479636 230.792727 
z
" style="stroke:#000000;stroke-linejoin:miter;"/>
   </g>
   <g id="patch_8">
    <path clip-path="url(#p3116385bf4)" d="M 159.834477 79.659851 
L 155.648147 88.886438 
L 151.601362 85.913427 
L 33.19409 172.902518 
L 32.915001 172.697482 
L 151.322274 85.708391 
L 147.275489 82.73538 
z
" style="stroke:#000000;stroke-linejoin:miter;"/>
   </g>
   <g id="patch_9">
    <path clip-path="url(#p3116385bf4)" d="M 230.4 77.112 
L 236.320364 85.810909 
L 230.597345 85.810909 
L 230.597345 172.8 
L 230.202655 172.8 
L 230.202655 85.810909 
L 224.479636 85.810909 
z
" style="stroke:#000000;stroke-linejoin:miter;"/>
   </g>
   <g id="patch_10">
    <path clip-path="url(#p3116385bf4)" d="M 163.302545 27.818182 
L 151.461818 32.167636 
L 151.461818 27.963164 
L 33.054545 27.963164 
L 33.054545 27.6732 
L 151.461818 27.6732 
L 151.461818 23.468727 
z
" style="stroke:#000000;stroke-linejoin:miter;"/>
   </g>
   <g id="patch_11">
    <path clip-path="url(#p3116385bf4)" d="M 360.648 317.781818 
L 348.807273 322.131273 
L 348.807273 317.9268 
L 230.4 317.9268 
L 230.4 317.636836 
L 348.807273 317.636836 
L 348.807273 313.432364 
z
" style="stroke:#000000;stroke-linejoin:miter;"/>
   </g>
   <g id="patch_12">
    <path clip-path="url(#p3116385bf4)" d="M 357.179931 224.64167 
L 352.993602 233.868256 
L 348.946817 230.895245 
L 230.539544 317.884336 
L 230.260456 317.679301 
L 348.667728 230.69021 
L 344.620943 227.717198 
z
" style="stroke:#000000;stroke-linejoin:miter;"/>
   </g>
   <g id="patch_13">
    <path clip-path="url(#p3116385bf4)" d="M 360.648 172.8 
L 348.807273 177.149455 
L 348.807273 172.944982 
L 230.4 172.944982 
L 230.4 172.655018 
L 348.807273 172.655018 
L 348.807273 168.450545 
z
" style="stroke:#000000;stroke-linejoin:miter;"/>
   </g>
   <g id="patch_14">
    <path clip-path="url(#p3116385bf4)" d="M 427.745455 222.093818 
L 433.665818 230.792727 
L 427.9428 230.792727 
L 427.9428 317.781818 
L 427.548109 317.781818 
L 427.548109 230.792727 
L 421.825091 230.792727 
z
" style="stroke:#000000;stroke-linejoin:miter;"/>
   </g>
   <g id="patch_15">
    <path clip-path="url(#p3116385bf4)" d="M 357.179931 120.95833 
L 344.620943 117.882802 
L 348.667728 114.90979 
L 230.260456 27.920699 
L 230.539544 27.715664 
L 348.946817 114.704755 
L 352.993602 111.731744 
z
" style="stroke:#000000;stroke-linejoin:miter;"/>
   </g>
   <g id="patch_16">
    <path clip-path="url(#p3116385bf4)" d="M 360.648 27.818182 
L 348.807273 32.167636 
L 348.807273 27.963164 
L 230.4 27.963164 
L 230.4 27.6732 
L 348.807273 27.6732 
L 348.807273 23.468727 
z
" style="stroke:#000000;stroke-linejoin:miter;"/>
   </g>
   <g id="patch_17">
    <path clip-path="url(#p3116385bf4)" d="M 427.745455 77.112 
L 433.665818 85.810909 
L 427.9428 85.810909 
L 427.9428 172.8 
L 427.548109 172.8 
L 427.548109 85.810909 
L 421.825091 85.810909 
z
" style="stroke:#000000;stroke-linejoin:miter;"/>
   </g>
   <g id="line2d_3"/>
   <g id="line2d_4">
    <defs>
     <path d="M 0 3.75 
C 0.994512 3.75 1.948425 3.354876 2.65165 2.65165 
C 3.354876 1.948425 3.75 0.994512 3.75 0 
C 3.75 -0.994512 3.354876 -1.948425 2.65165 -2.65165 
C 1.948425 -3.354876 0.994512 -3.75 0 -3.75 
C -0.994512 -3.75 -1.948425 -3.354876 -2.65165 -2.65165 
C -3.354876 -1.948425 -3.75 -0.994512 -3.75 0 
C -3.75 0.994512 -3.354876 1.948425 -2.65165 2.65165 
C -1.948425 3.354876 -0.994512 3.75 0 3.75 
z
" id="md07559a8ba" style="stroke:#000000;"/>
    </defs>
    <g clip-path="url(#p3116385bf4)">
     <use style="stroke:#000000;" x="33.054545" xlink:href="#md07559a8ba" y="317.781818"/>
     <use style="stroke:#000000;" x="33.054545" xlink:href="#md07559a8ba" y="172.8"/>
     <use style="stroke:#000000;" x="33.054545" xlink:href="#md07559a8ba" y="27.818182"/>
     <use style="stroke:#000000;" x="230.4" xlink:href="#md07559a8ba" y="317.781818"/>
     <use style="stroke:#000000;" x="230.4" xlink:href="#md07559a8ba" y="172.8"/>
     <use style="stroke:#000000;" x="230.4" xlink:href="#md07559a8ba" y="27.818182"/>
     <use style="stroke:#000000;" x="427.745455" xlink:href="#md07559a8ba" y="317.781818"/>
     <use style="stroke:#000000;" x="427.745455" xlink:href="#md07559a8ba" y="172.8"/>
     <use style="stroke:#000000;" x="427.745455" xlink:href="#md07559a8ba" y="27.818182"/>
    </g>
   </g>
   <g id="line2d_5"/>
   <g id="line2d_6">
    <defs>
     <path d="M 0 5 
C 1.326016 5 2.597899 4.473168 3.535534 3.535534 
C 4.473168 2.597899 5 1.326016 5 0 
C 5 -1.326016 4.473168 -2.597899 3.535534 -3.535534 
C 2.597899 -4.473168 1.326016 -5 0 -5 
C -1.326016 -5 -2.597899 -4.473168 -3.535534 -3.535534 
C -4.473168 -2.597899 -5 -1.326016 -5 0 
C -5 1.326016 -4.473168 2.597899 -3.535534 3.535534 
C -2.597899 4.473168 -1.326016 5 0 5 
z
" id="me43091b647" style="stroke:#000000;"/>
    </defs>
    <g clip-path="url(#p3116385bf4)">
     <use style="stroke:#000000;" x="33.054545" xlink:href="#me43091b647" y="317.781818"/>
     <use style="stroke:#000000;" x="33.054545" xlink:href="#me43091b647" y="172.8"/>
     <use style="stroke:#000000;" x="33.054545" xlink:href="#me43091b647" y="27.818182"/>
     <use style="stroke:#000000;" x="230.4" xlink:href="#me43091b647" y="317.781818"/>
     <use style="stroke:#000000;" x="230.4" xlink:href="#me43091b647" y="172.8"/>
     <use style="stroke:#000000;" x="230.4" xlink:href="#me43091b647" y="27.818182"/>
     <use style="stroke:#000000;" x="427.745455" xlink:href="#me43091b647" y="317.781818"/>
     <use style="stroke:#000000;" x="427.745455" xlink:href="#me43091b647" y="172.8"/>
     <use style="stroke:#000000;" x="427.745455" xlink:href="#me43091b647" y="27.818182"/>
    </g>
   </g>
   <g id="line2d_7">
    <defs>
     <path d="M 0 5 
C 1.326016 5 2.597899 4.473168 3.535534 3.535534 
C 4.473168 2.597899 5 1.326016 5 0 
C 5 -1.326016 4.473168 -2.597899 3.535534 -3.535534 
C 2.597899 -4.473168 1.326016 -5 0 -5 
C -1.326016 -5 -2.597899 -4.473168 -3.535534 -3.535534 
C -4.473168 -2.597899 -5 -1.326016 -5 0 
C -5 1.326016 -4.473168 2.597899 -3.535534 3.535534 
C -2.597899 4.473168 -1.326016 5 0 5 
z
" id="m3ad2472618" style="stroke:#f2bd8a;"/>
    </defs>
    <g clip-path="url(#p3116385bf4)">
     <use style="fill:#f2bd8a;stroke:#f2bd8a;" x="33.054545" xlink:href="#m3ad2472618" y="317.781818"/>
     <use style="fill:#f2bd8a;stroke:#f2bd8a;" x="33.054545" xlink:href="#m3ad2472618" y="172.8"/>
     <use style="fill:#f2bd8a;stroke:#f2bd8a;" x="33.054545" xlink:href="#m3ad2472618" y="27.818182"/>
     <use style="fill:#f2bd8a;stroke:#f2bd8a;" x="230.4" xlink:href="#m3ad2472618" y="317.781818"/>
    </g>
   </g>
  </g>
 </g>
 <defs>
  <clipPath id="p3116385bf4">
   <rect height="318.96" width="434.16" x="13.32" y="13.32"/>
  </clipPath>
 </defs>
</svg>
