<?xml version="1.0" encoding="UTF-8" standalone="no"?>
<!-- Created with Inkscape (http://www.inkscape.org/) -->

<svg
   xmlns:dc="http://purl.org/dc/elements/1.1/"
   xmlns:cc="http://creativecommons.org/ns#"
   xmlns:rdf="http://www.w3.org/1999/02/22-rdf-syntax-ns#"
   xmlns:svg="http://www.w3.org/2000/svg"
   xmlns="http://www.w3.org/2000/svg"
   xmlns:sodipodi="http://sodipodi.sourceforge.net/DTD/sodipodi-0.dtd"
   xmlns:inkscape="http://www.inkscape.org/namespaces/inkscape"
   width="108.93414mm"
   height="36.860291mm"
   viewBox="0 0 108.93414 36.860291"
   version="1.1"
   id="svg15206"
   inkscape:version="0.92.2 5c3e80d, 2017-08-06"
   sodipodi:docname="5topos_3.svg">
  <defs
     id="defs15200" />
  <sodipodi:namedview
     id="base"
     pagecolor="#ffffff"
     bordercolor="#666666"
     borderopacity="1.0"
     inkscape:pageopacity="0.0"
     inkscape:pageshadow="2"
     inkscape:zoom="0.35"
     inkscape:cx="-266.3943"
     inkscape:cy="395.27152"
     inkscape:document-units="mm"
     inkscape:current-layer="layer1"
     showgrid="false"
     fit-margin-top="0"
     fit-margin-left="0"
     fit-margin-right="0"
     fit-margin-bottom="0"
     inkscape:window-width="1920"
     inkscape:window-height="1015"
     inkscape:window-x="0"
     inkscape:window-y="0"
     inkscape:window-maximized="1"
     inkscape:showpageshadow="false" />
  <metadata
     id="metadata15203">
    <rdf:RDF>
      <cc:Work
         rdf:about="">
        <dc:format>image/svg+xml</dc:format>
        <dc:type
           rdf:resource="http://purl.org/dc/dcmitype/StillImage" />
        <dc:title></dc:title>
      </cc:Work>
    </rdf:RDF>
  </metadata>
  <g
     inkscape:label="Layer 1"
     inkscape:groupmode="layer"
     id="layer1"
     transform="translate(-1.473405,-212.80199)">
    <ellipse
       style="opacity:1;fill:#f2bd8a;fill-opacity:1;stroke:#eb811b;stroke-width:0.26458332;stroke-miterlimit:4;stroke-dasharray:none;stroke-dashoffset:0;stroke-opacity:1"
       id="path4890"
       cx="55.766441"
       cy="237.06117"
       rx="12.666927"
       ry="12.270052" />
    <path
       style="fill:#f2bd8a;fill-opacity:1;fill-rule:evenodd;stroke:#eb811b;stroke-width:0.52916664;stroke-linecap:butt;stroke-linejoin:miter;stroke-miterlimit:4;stroke-dasharray:none;stroke-opacity:1"
       d="M 3.0690116,228.13355 H 22.048731 v 18.97973 H 3.0318045 Z"
       id="path4749-3-6-7-5"
       inkscape:connector-curvature="0" />
    <path
       style="fill:none;fill-rule:evenodd;stroke:#eb811b;stroke-width:0.52916664;stroke-linecap:butt;stroke-linejoin:miter;stroke-miterlimit:4;stroke-dasharray:none;stroke-opacity:1"
       d="m 26.265399,237.73917 9.673828,-0.0165"
       id="path4864"
       inkscape:connector-curvature="0" />
    <path
       style="fill:none;fill-rule:evenodd;stroke:#eb811b;stroke-width:0.52916664;stroke-linecap:butt;stroke-linejoin:miter;stroke-miterlimit:4;stroke-dasharray:none;stroke-opacity:1"
       d="m 43.562534,237.95414 c 0,0 2.695443,3.57188 12.451953,3.53881 9.75651,-0.0331 12.154297,-3.53881 12.154297,-3.53881"
       id="path4880"
       inkscape:connector-curvature="0" />
    <path
       style="fill:none;fill-rule:evenodd;stroke:#eb811b;stroke-width:0.52916664;stroke-linecap:butt;stroke-linejoin:miter;stroke-miterlimit:4;stroke-dasharray:0.52916667, 0.52916667;stroke-dashoffset:0;stroke-opacity:1"
       d="m 43.496388,236.36664 c 0,0 2.844271,-3.9026 11.90625,-3.83645 9.061979,0.0661 12.7,3.96875 12.7,3.96875"
       id="path4882"
       inkscape:connector-curvature="0" />
    <path
       style="fill:none;fill-rule:evenodd;stroke:#eb811b;stroke-width:0.52916664;stroke-linecap:butt;stroke-linejoin:miter;stroke-miterlimit:4;stroke-dasharray:none;stroke-opacity:1"
       d="m 74.039227,237.67302 c 0.09922,0.0165 10.054166,0.0331 10.054166,0.0331"
       id="path4892"
       inkscape:connector-curvature="0" />
    <path
       style="fill:#f2bd8a;fill-opacity:1;fill-rule:evenodd;stroke:#eb811b;stroke-width:0.52916664;stroke-linecap:butt;stroke-linejoin:miter;stroke-miterlimit:4;stroke-dasharray:none;stroke-opacity:1"
       d="m 100.16683,213.06677 c -3.621484,-0.0331 -4.960937,4.18373 -4.960937,4.18373 l -0.132291,5.63893 -0.148829,1.67018 v 0.82683 c 0,0 -0.165364,0.77721 -0.181901,0.89296 -0.01654,0.11576 -0.115755,0.54571 -0.115755,0.54571 l -0.04961,1.00872 -0.248047,1.12448 -0.165365,0.77721 -0.09922,0.81029 -0.132292,0.3638 -0.347266,0.74414 -0.463021,0.69453 -0.479557,0.56224 -0.51263,0.61185 -0.611849,1.00873 -0.607716,1.04593 -0.504359,1.30638 -0.293524,1.61644 c 0,0 0.763513,1.57882 5.625232,1.57882 4.132562,0 4.430547,-1.17704 4.412397,-0.98351 -0.0484,-0.009 0.49707,1.00197 4.21963,1.03028 4.34909,0.0331 5.73532,-1.6752 5.73532,-1.6752 l -0.34727,-0.89297 -0.0992,-0.82682 -0.31419,-0.77722 -0.31419,-0.84336 -0.52917,-0.89297 -0.51263,-0.74414 -0.56224,-0.71106 -0.57877,-0.81029 -0.56224,-1.00872 c 0,0 -0.0331,-0.84336 -0.0496,-0.92605 -0.0165,-0.0827 -0.19844,-0.79375 -0.19844,-0.79375 l -0.28112,-1.4552 -0.0496,-1.28985 -0.14883,-0.99219 -0.0496,-1.2733 -0.26458,-1.27331 -0.0496,-5.60586 c 0,0 -1.4056,-4.23333 -5.02708,-4.26641 z m -0.0165,26.02839 v 0 c 0,0 0.0202,0.54864 0,0 z m -10.021089,-0.42995 -0.132292,0.678 c 0,0 0.132292,9.98802 9.988021,10.05416 9.85573,0.0661 10.12031,-9.65729 10.12031,-9.65729 l -0.0496,-1.05833 c 0,0 -2.03398,1.4056 -5.70508,1.43867 -3.67109,0.0331 -4.20026,-1.02526 -4.20026,-1.02526 0,0 -1.256767,1.0418 -4.41523,1.05833 -3.158464,0.0165 -5.605859,-1.48828 -5.605859,-1.48828 z"
       id="path4894"
       inkscape:connector-curvature="0"
       sodipodi:nodetypes="sccccsccccccccccccccscsccccccccccscccccccscccccsccscsc" />
    <path
       style="fill:none;fill-rule:evenodd;stroke:#eb811b;stroke-width:0.52916664;stroke-linecap:butt;stroke-linejoin:miter;stroke-miterlimit:4;stroke-dasharray:none;stroke-opacity:1"
       d="m 108.88154,244.30414 c -0.0661,0.0496 -2.77812,1.63711 -8.79739,1.65365 -6.019272,0.0165 -8.747788,-1.60404 -8.747788,-1.60404"
       id="path4896"
       inkscape:connector-curvature="0" />
    <path
       style="fill:none;fill-rule:evenodd;stroke:#eb811b;stroke-width:0.52916664;stroke-linecap:butt;stroke-linejoin:miter;stroke-miterlimit:4;stroke-dasharray:0.52916667, 0.52916667;stroke-dashoffset:0;stroke-opacity:1"
       d="m 91.038706,243.72537 c 0,0 0.545703,-1.85208 8.913151,-2.00091 8.367443,-0.14883 9.128123,2.05052 9.128123,2.05052"
       id="path4898"
       inkscape:connector-curvature="0" />
    <path
       style="fill:none;fill-rule:evenodd;stroke:#eb811b;stroke-width:0.52916664;stroke-linecap:butt;stroke-linejoin:miter;stroke-miterlimit:4;stroke-dasharray:none;stroke-opacity:1"
       d="m 106.28532,230.94269 c 0,0 -0.0827,0.51263 -3.04271,0.46302 -2.96002,-0.0496 -3.05924,-1.0418 -3.05924,-1.0418 0,0 -0.0165,1.07487 -3.059248,1.00872 -3.042708,-0.0661 -3.059244,-0.82682 -3.059244,-0.82682"
       id="path4902"
       inkscape:connector-curvature="0" />
    <path
       style="fill:none;fill-rule:evenodd;stroke:#eb811b;stroke-width:0.52916664;stroke-linecap:butt;stroke-linejoin:miter;stroke-miterlimit:4;stroke-dasharray:none;stroke-opacity:1"
       d="M 100.18337,230.36391 V 213.05024"
       id="path4908"
       inkscape:connector-curvature="0" />
    <path
       style="fill:none;fill-rule:evenodd;stroke:#eb811b;stroke-width:0.52916664;stroke-linecap:butt;stroke-linejoin:miter;stroke-miterlimit:4;stroke-dasharray:none;stroke-opacity:1"
       d="m 100.21644,219.44985 c 0,0 0.38034,0.87643 2.43086,0.89297 2.05052,0.0165 2.56315,-0.81029 2.56315,-0.81029"
       id="path4910"
       inkscape:connector-curvature="0" />
    <path
       style="fill:none;fill-rule:evenodd;stroke:#eb811b;stroke-width:0.52916664;stroke-linecap:butt;stroke-linejoin:miter;stroke-miterlimit:4;stroke-dasharray:none;stroke-opacity:1"
       d="m 100.21644,219.44985 c 0,0 -0.330729,0.82682 -2.596224,0.81028 -2.265495,-0.0165 -2.463932,-0.76067 -2.463932,-0.76067"
       id="path4912"
       inkscape:connector-curvature="0" />
    <path
       style="fill:none;fill-rule:evenodd;stroke:#eb811b;stroke-width:0.52916664;stroke-linecap:butt;stroke-linejoin:miter;stroke-miterlimit:4;stroke-dasharray:none;stroke-opacity:1"
       d="m 105.55771,225.22107 c -0.1819,0.0496 -0.33073,0.61185 -2.46393,0.62839 -2.1332,0.0165 -2.87734,-1.10795 -2.87734,-1.10795 0,0 -0.777213,1.09141 -2.926953,1.09141 -2.14974,0 -2.414323,-0.79375 -2.414323,-0.79375"
       id="path4914"
       inkscape:connector-curvature="0" />
    <path
       style="fill:none;fill-rule:evenodd;stroke:#eb811b;stroke-width:0.52916664;stroke-linecap:butt;stroke-linejoin:miter;stroke-miterlimit:4;stroke-dasharray:0.52916667, 0.52916667;stroke-dashoffset:0;stroke-opacity:1"
       d="m 94.064878,230.54581 c 0,0 0.611849,-1.0418 3.026171,-1.0418 2.414323,0 3.092321,0.8599 3.092321,0.8599 0,0 0.67799,-0.87643 2.99309,-0.8599 2.31511,0.0165 3.10886,1.43868 3.10886,1.43868"
       id="path4916"
       inkscape:connector-curvature="0" />
    <path
       style="fill:none;fill-rule:evenodd;stroke:#eb811b;stroke-width:0.52916664;stroke-linecap:butt;stroke-linejoin:miter;stroke-miterlimit:4;stroke-dasharray:0.52916667, 0.52916667;stroke-dashoffset:0;stroke-opacity:1"
       d="m 94.875164,225.03917 c 0,0 0.148828,-1.10794 2.546615,-1.15755 2.397786,-0.0496 2.794661,0.85989 2.794661,0.85989 0,0 0.41341,-0.79375 2.57968,-0.77721 2.16628,0.0165 2.76159,1.25677 2.76159,1.25677"
       id="path4918"
       inkscape:connector-curvature="0" />
    <path
       style="fill:none;fill-rule:evenodd;stroke:#eb811b;stroke-width:0.52916664;stroke-linecap:butt;stroke-linejoin:miter;stroke-miterlimit:4;stroke-dasharray:0.52916667, 0.52916667;stroke-dashoffset:0;stroke-opacity:1"
       d="m 95.156284,219.49946 c 0,0 0.198437,-0.81029 2.33164,-0.84336 2.133204,-0.0331 2.728516,0.79375 2.728516,0.79375 0,0 0.74414,-0.81029 2.57968,-0.77722 1.83555,0.0331 2.41433,0.8599 2.41433,0.8599"
       id="path4920"
       inkscape:connector-curvature="0" />
    <path
       d="m 59.132826,230.96143 c 0.508855,1.56387 -0.948563,3.59425 -3.254922,4.53381 -2.306908,0.93934 -4.589733,0.43302 -5.098587,-1.13167 -0.508857,-1.56469 0.94856,-3.59446 3.255653,-4.53381 2.306904,-0.93955 4.589002,-0.43302 5.097856,1.13167 z"
       style="fill:#fcf2e8;fill-opacity:0.43243199;fill-rule:nonzero;stroke:none;stroke-width:0.19300096"
       id="path52"
       inkscape:connector-curvature="0" />
    <path
       d="m 59.132951,230.96147 c 0.508857,1.5638 -0.948727,3.5944 -3.254907,4.53366 -2.30709,0.93963 -4.58991,0.43312 -5.098669,-1.13165 -0.508939,-1.56469 0.948547,-3.59432 3.255521,-4.53368 2.30709,-0.93963 4.589116,-0.43302 5.098055,1.13167 z"
       style="fill:none;stroke:#eb811b;stroke-width:0.57900286;stroke-linecap:butt;stroke-linejoin:miter;stroke-miterlimit:4;stroke-dasharray:1.73700861, 0.57900287;stroke-dashoffset:0;stroke-opacity:1"
       id="path56"
       inkscape:connector-curvature="0" />
    <path
       d="m 35.621732,239.08886 -0.003,-2.74513 1.048401,0.67817 0.07258,0.0465 1.047758,0.67857 z"
       style="fill:#eb811b;fill-opacity:1;fill-rule:nonzero;stroke:#eb811b;stroke-width:0.14240284;stroke-linecap:butt;stroke-linejoin:miter;stroke-miterlimit:10;stroke-dasharray:none;stroke-opacity:1"
       id="path448"
       inkscape:connector-curvature="0" />
    <path
       d="m 20.698267,236.78994 2.745134,-0.003 -0.678178,1.0484 -0.04647,0.0726 -0.678564,1.04776 z"
       style="fill:#eb811b;fill-opacity:1;fill-rule:nonzero;stroke:#eb811b;stroke-width:0.14240284;stroke-linecap:butt;stroke-linejoin:miter;stroke-miterlimit:10;stroke-dasharray:none;stroke-opacity:1"
       id="path448-3-5-6-2-9-7-9-3-1"
       inkscape:connector-curvature="0"
       inkscape:transform-center-x="26.130967"
       inkscape:transform-center-y="-0.741582" />
    <path
       d="m 4.3494868,238.9348 -2.7451324,0.003 0.6781762,-1.04841 0.046469,-0.0726 0.6785637,-1.04775 z"
       style="fill:#eb811b;fill-opacity:1;fill-rule:nonzero;stroke:#eb811b;stroke-width:0.14240284;stroke-linecap:butt;stroke-linejoin:miter;stroke-miterlimit:10;stroke-dasharray:none;stroke-opacity:1"
       id="path448-3-5-6-2-9-7-0-3-7-2"
       inkscape:connector-curvature="0"
       inkscape:transform-center-x="-26.13097"
       inkscape:transform-center-y="0.741578" />
    <path
       d="m 11.090931,229.65481 -0.003,-2.74513 1.048401,0.67817 0.07258,0.0465 1.047758,0.67856 z"
       style="fill:#eb811b;fill-opacity:1;fill-rule:nonzero;stroke:#eb811b;stroke-width:0.14240284;stroke-linecap:butt;stroke-linejoin:miter;stroke-miterlimit:10;stroke-dasharray:none;stroke-opacity:1"
       id="path448-3-5-6-2-9-7-0-3-0-5-9"
       inkscape:connector-curvature="0"
       inkscape:transform-center-x="0.741582"
       inkscape:transform-center-y="26.130968" />
    <path
       d="m 12.447507,229.67337 -0.003,-2.74513 1.048401,0.67817 0.07258,0.0465 1.047758,0.67856 z"
       style="fill:#eb811b;fill-opacity:1;fill-rule:nonzero;stroke:#eb811b;stroke-width:0.14240284;stroke-linecap:butt;stroke-linejoin:miter;stroke-miterlimit:10;stroke-dasharray:none;stroke-opacity:1"
       id="path448-3-5-6-2-9-7-0-3-0-6-9-3"
       inkscape:connector-curvature="0"
       inkscape:transform-center-x="0.741582"
       inkscape:transform-center-y="26.130968" />
    <path
       d="m 13.973412,245.7322 0.003,2.74513 -1.048401,-0.67817 -0.07258,-0.0465 -1.047758,-0.67857 z"
       style="fill:#eb811b;fill-opacity:1;fill-rule:nonzero;stroke:#eb811b;stroke-width:0.14240284;stroke-linecap:butt;stroke-linejoin:miter;stroke-miterlimit:10;stroke-dasharray:none;stroke-opacity:1"
       id="path448-3-5-6-2-9-7-0-3-0-2-2-1"
       inkscape:connector-curvature="0"
       inkscape:transform-center-x="-0.741578"
       inkscape:transform-center-y="-26.130972" />
    <path
       d="m 12.616838,245.71364 0.003,2.74513 -1.048398,-0.67817 -0.07259,-0.0465 -1.047758,-0.67857 z"
       style="fill:#eb811b;fill-opacity:1;fill-rule:nonzero;stroke:#eb811b;stroke-width:0.14240284;stroke-linecap:butt;stroke-linejoin:miter;stroke-miterlimit:10;stroke-dasharray:none;stroke-opacity:1"
       id="path448-3-5-6-2-9-7-0-3-0-6-6-2-9"
       inkscape:connector-curvature="0"
       inkscape:transform-center-x="-0.741588"
       inkscape:transform-center-y="-26.130972" />
    <path
       d="m 58.132392,235.8335 -1.943254,-1.93895 1.220875,-0.26179 0.08418,-0.0185 1.220695,-0.26106 z"
       style="fill:#eb811b;fill-opacity:1;fill-rule:nonzero;stroke:#eb811b;stroke-width:0.14240284;stroke-linecap:butt;stroke-linejoin:miter;stroke-miterlimit:10;stroke-dasharray:none;stroke-opacity:1"
       id="path448-3-5-6-2-9-7-9-3-1-4"
       inkscape:connector-curvature="0"
       inkscape:transform-center-x="-16.159843"
       inkscape:transform-center-y="20.872743" />
    <path
       d="m 57.44551,236.48283 -1.943254,-1.93895 1.220875,-0.26179 0.08418,-0.0185 1.220694,-0.26106 z"
       style="fill:#eb811b;fill-opacity:1;fill-rule:nonzero;stroke:#eb811b;stroke-width:0.14240284;stroke-linecap:butt;stroke-linejoin:miter;stroke-miterlimit:10;stroke-dasharray:none;stroke-opacity:1"
       id="path448-3-5-6-2-9-7-9-3-1-4-7"
       inkscape:connector-curvature="0"
       inkscape:transform-center-x="-16.159843"
       inkscape:transform-center-y="20.872743" />
    <path
       d="m 53.061565,237.33796 -0.242287,-2.73442 1.103522,0.58422 0.07636,0.04 1.102918,0.58466 z"
       style="fill:#eb811b;fill-opacity:1;fill-rule:nonzero;stroke:#eb811b;stroke-width:0.14240284;stroke-linecap:butt;stroke-linejoin:miter;stroke-miterlimit:10;stroke-dasharray:none;stroke-opacity:1"
       id="path448-3-5-6-2-9-7-9-3-1-4-7-8"
       inkscape:connector-curvature="0"
       inkscape:transform-center-x="-1.317703"
       inkscape:transform-center-y="26.452858" />
    <path
       d="m 52.02388,229.40068 1.943253,1.93895 -1.220875,0.26179 -0.08418,0.0185 -1.220695,0.26107 z"
       style="fill:#eb811b;fill-opacity:1;fill-rule:nonzero;stroke:#eb811b;stroke-width:0.14240284;stroke-linecap:butt;stroke-linejoin:miter;stroke-miterlimit:10;stroke-dasharray:none;stroke-opacity:1"
       id="path448-3-5-6-2-9-7-9-3-1-4-4"
       inkscape:connector-curvature="0"
       inkscape:transform-center-x="16.159847"
       inkscape:transform-center-y="-20.872747" />
    <path
       d="m 52.710762,228.75135 1.943253,1.93895 -1.220874,0.26179 -0.08418,0.0185 -1.220695,0.26106 z"
       style="fill:#eb811b;fill-opacity:1;fill-rule:nonzero;stroke:#eb811b;stroke-width:0.14240284;stroke-linecap:butt;stroke-linejoin:miter;stroke-miterlimit:10;stroke-dasharray:none;stroke-opacity:1"
       id="path448-3-5-6-2-9-7-9-3-1-4-7-5"
       inkscape:connector-curvature="0"
       inkscape:transform-center-x="16.159847"
       inkscape:transform-center-y="-20.872747" />
    <path
       d="m 57.094707,227.89623 0.242287,2.73442 -1.103522,-0.58423 -0.07636,-0.04 -1.102919,-0.58466 z"
       style="fill:#eb811b;fill-opacity:1;fill-rule:nonzero;stroke:#eb811b;stroke-width:0.14240284;stroke-linecap:butt;stroke-linejoin:miter;stroke-miterlimit:10;stroke-dasharray:none;stroke-opacity:1"
       id="path448-3-5-6-2-9-7-9-3-1-4-7-8-0"
       inkscape:connector-curvature="0"
       inkscape:transform-center-x="1.317707"
       inkscape:transform-center-y="-26.452862" />
    <path
       d="m 101.54322,227.63221 -2.745132,0.003 0.678175,-1.0484 0.04647,-0.0726 0.678567,-1.04776 z"
       style="fill:#eb811b;fill-opacity:1;fill-rule:nonzero;stroke:#eb811b;stroke-width:0.14240284;stroke-linecap:butt;stroke-linejoin:miter;stroke-miterlimit:10;stroke-dasharray:none;stroke-opacity:1"
       id="path448-3-5-6-2-9-7-0-3-7-2-3"
       inkscape:connector-curvature="0"
       inkscape:transform-center-x="-26.13097"
       inkscape:transform-center-y="0.741578" />
    <path
       d="m 101.55491,223.45779 -2.74513,0.003 0.678175,-1.0484 0.04647,-0.0726 0.678565,-1.04776 z"
       style="fill:#eb811b;fill-opacity:1;fill-rule:nonzero;stroke:#eb811b;stroke-width:0.14240284;stroke-linecap:butt;stroke-linejoin:miter;stroke-miterlimit:10;stroke-dasharray:none;stroke-opacity:1"
       id="path448-3-5-6-2-9-7-0-3-7-2-3-1"
       inkscape:connector-curvature="0"
       inkscape:transform-center-x="-26.13097"
       inkscape:transform-center-y="0.741578" />
    <path
       d="m 101.5783,222.55743 -2.745133,0.003 0.678174,-1.0484 0.04647,-0.0726 0.678559,-1.04776 z"
       style="fill:#eb811b;fill-opacity:1;fill-rule:nonzero;stroke:#eb811b;stroke-width:0.14240284;stroke-linecap:butt;stroke-linejoin:miter;stroke-miterlimit:10;stroke-dasharray:none;stroke-opacity:1"
       id="path448-3-5-6-2-9-7-0-3-7-2-3-1-0"
       inkscape:connector-curvature="0"
       inkscape:transform-center-x="-26.13097"
       inkscape:transform-center-y="0.741578" />
    <text
       y="248.34833"
       x="26.744291"
       transform="scale(1.0600581,0.94334452)"
       style="font-variant:normal;font-weight:normal;font-size:6.42415237px;font-family:'DejaVu Sans';-inkscape-font-specification:DejaVuSans;writing-mode:lr-tb;fill:#f2bd8a;fill-opacity:1;fill-rule:nonzero;stroke:none;stroke-width:0.332791"
       id="text212-6-6-4-6">
      <tspan
         style="fill:#f2bd8a;fill-opacity:1;stroke-width:0.332791"
         x="26.744291"
         y="248.34833"
         id="tspan210-3-1-7-9">∼</tspan>
    </text>
    <text
       y="250.40404"
       x="26.744291"
       transform="scale(1.0600581,0.94334452)"
       style="font-variant:normal;font-weight:normal;font-size:6.42415237px;font-family:'DejaVu Sans';-inkscape-font-specification:DejaVuSans;writing-mode:lr-tb;fill:#f2bd8a;fill-opacity:1;fill-rule:nonzero;stroke:none;stroke-width:0.332791"
       id="text216-2-5-6-3">
      <tspan
         style="fill:#f2bd8a;fill-opacity:1;stroke-width:0.332791"
         x="26.744291"
         y="250.40404"
         id="tspan214-0-5-5-7">=</tspan>
    </text>
    <text
       y="248.46791"
       x="71.96962"
       transform="scale(1.0600581,0.94334452)"
       style="font-variant:normal;font-weight:normal;font-size:6.42415237px;font-family:'DejaVu Sans';-inkscape-font-specification:DejaVuSans;writing-mode:lr-tb;fill:#f2bd8a;fill-opacity:1;fill-rule:nonzero;stroke:none;stroke-width:0.332791"
       id="text212-6-6-4-4">
      <tspan
         style="fill:#f2bd8a;fill-opacity:1;stroke-width:0.332791"
         x="71.96962"
         y="248.46791"
         id="tspan210-3-1-7-5">∼</tspan>
    </text>
    <text
       y="250.52362"
       x="71.96962"
       transform="scale(1.0600581,0.94334452)"
       style="font-variant:normal;font-weight:normal;font-size:6.42415237px;font-family:'DejaVu Sans';-inkscape-font-specification:DejaVuSans;writing-mode:lr-tb;fill:#f2bd8a;fill-opacity:1;fill-rule:nonzero;stroke:none;stroke-width:0.332791"
       id="text216-2-5-6-2">
      <tspan
         style="fill:#f2bd8a;fill-opacity:1;stroke-width:0.332791"
         x="71.96962"
         y="250.52362"
         id="tspan214-0-5-5-5">=</tspan>
    </text>
    <path
       d="m 83.76903,239.04807 -0.003,-2.74514 1.048401,0.67818 0.07258,0.0465 1.047758,0.67856 z"
       style="fill:#eb811b;fill-opacity:1;fill-rule:nonzero;stroke:#eb811b;stroke-width:0.14240284;stroke-linecap:butt;stroke-linejoin:miter;stroke-miterlimit:10;stroke-dasharray:none;stroke-opacity:1"
       id="path448-4"
       inkscape:connector-curvature="0" />
    <path
       style="fill:none;fill-rule:evenodd;stroke:#eb811b;stroke-width:0.52916664;stroke-linecap:butt;stroke-linejoin:miter;stroke-miterlimit:4;stroke-dasharray:0.52916667, 0.52916667;stroke-dashoffset:0;stroke-opacity:1"
       d="m 90.129201,238.66521 c 0,0 0.287874,-1.57466 4.824774,-1.57466 4.536901,0 5.196315,2.00461 5.196315,2.00461 0,0 0.65021,-1.86429 4.90647,-1.91107 4.25627,-0.0468 4.99887,1.49766 4.99887,1.49766"
       id="path5749"
       inkscape:connector-curvature="0" />
  </g>
</svg>
