<?xml version="1.0" encoding="UTF-8" standalone="no"?>
<!-- Created with Inkscape (http://www.inkscape.org/) -->

<svg
   xmlns:dc="http://purl.org/dc/elements/1.1/"
   xmlns:cc="http://creativecommons.org/ns#"
   xmlns:rdf="http://www.w3.org/1999/02/22-rdf-syntax-ns#"
   xmlns:svg="http://www.w3.org/2000/svg"
   xmlns="http://www.w3.org/2000/svg"
   xmlns:sodipodi="http://sodipodi.sourceforge.net/DTD/sodipodi-0.dtd"
   xmlns:inkscape="http://www.inkscape.org/namespaces/inkscape"
   version="1.1"
   id="svg2"
   xml:space="preserve"
   width="667.98444"
   height="179.22852"
   viewBox="0 0 667.98443 179.22851"
   sodipodi:docname="stori_10.svg"
   inkscape:version="0.92.2 5c3e80d, 2017-08-06"><metadata
     id="metadata8"><rdf:RDF><cc:Work
         rdf:about=""><dc:format>image/svg+xml</dc:format><dc:type
           rdf:resource="http://purl.org/dc/dcmitype/StillImage" /><dc:title></dc:title></cc:Work></rdf:RDF></metadata><defs
     id="defs6" /><sodipodi:namedview
     pagecolor="#ffffff"
     bordercolor="#666666"
     borderopacity="1"
     objecttolerance="10"
     gridtolerance="10"
     guidetolerance="10"
     inkscape:pageopacity="0"
     inkscape:pageshadow="2"
     inkscape:window-width="1920"
     inkscape:window-height="1015"
     id="namedview4"
     showgrid="false"
     inkscape:zoom="0.33800025"
     inkscape:cx="264.09423"
     inkscape:cy="-134.06895"
     inkscape:window-x="0"
     inkscape:window-y="0"
     inkscape:window-maximized="1"
     inkscape:current-layer="g10"
     fit-margin-top="0"
     fit-margin-left="0"
     fit-margin-right="0"
     fit-margin-bottom="0" /><g
     id="g10"
     inkscape:groupmode="layer"
     inkscape:label="stori_10"
     transform="matrix(1.3333333,0,0,1.3333333,-769.94755,30.97625)"><path
       style="fill:#f2bd8a;fill-opacity:1;fill-rule:nonzero;stroke:#eb811b;stroke-width:3;stroke-linecap:butt;stroke-linejoin:miter;stroke-miterlimit:4;stroke-dasharray:none;stroke-opacity:1"
       d="m 678.99193,-21.732188 c -55.24695,2e-6 -100.03125,29.2504196 -100.03125,65.336431 0,36.081998 44.7843,65.334957 100.03125,65.334957 29.44635,0 55.92038,-8.31166 74.22661,-21.537596 18.32175,13.442576 45.01192,21.912596 74.73487,21.912596 29.4468,0 55.92053,-8.31158 74.22653,-21.537596 18.32175,13.442576 45.012,21.912596 74.73488,21.912596 55.24598,0 100.03418,-29.252974 100.03418,-65.334957 0,-36.0860091 -44.7882,-65.336431 -100.03418,-65.336431 -29.44733,0 -55.92136,8.310296 -74.22661,21.53613391 C 884.36579,-12.888298 857.67569,-21.357188 827.95341,-21.357188 c -29.44687,0 -55.91992,8.310701 -74.2251,21.5361339 -18.32273,-13.4423039 -45.0138,-21.9111329 -74.73638,-21.9111339 z"
       id="path40"
       inkscape:connector-curvature="0" /><path
       d="m 645.19109,43.130556 c 0,0 0,0 1.691,-0.582 1.699,-0.574 5.09,-1.738 8.61,-2.668 3.515,-0.945 7.164,-1.668 10.968,-2.179 3.809,-0.512 7.789,-0.817001 11.481,-0.899 3.683,-0.074 7.086,0.082 10.457,0.429999 3.371,0.336 6.707,0.875001 9.722,1.484001 3.028,0.606 5.731,1.284999 8.321,2.223 2.59,0.941 5.07,2.152 6.304,2.754 1.243,0.605 1.243,0.605 1.243,0.605 0,0 0,0 -1.473,0.403 -1.477,0.402 -4.426,1.207 -7.125,1.819999 -2.688,0.621 -5.133,1.043001 -8.242,1.453001 -3.102,0.402 -6.883,0.793 -10.832,1 -3.961,0.215 -8.094,0.242 -11.899,0.098 -3.812,-0.141 -7.293,-0.457001 -10.336,-0.852 -3.039,-0.391001 -5.632,-0.863 -8.707,-1.723001 -3.078,-0.862999 -6.632,-2.116999 -8.406,-2.737999 -1.777,-0.629 -1.777,-0.629 -1.777,-0.629 z"
       style="fill:#ffffff;fill-opacity:1;fill-rule:evenodd;stroke:none;stroke-width:0.99999994"
       id="path42"
       inkscape:connector-curvature="0" /><path
       d="m 724.46809,39.302555 c 0,0 0,0 -1.434,0.805001 -1.425,0.805 -4.292,2.414 -7.98,3.808 -3.684,1.387 -8.191,2.551 -13.41,3.469 -5.231,0.921999 -11.168,1.61 -17.024,1.863 -5.855,0.254 -11.628,0.086 -17.058,-0.48 -5.43,-0.555 -10.524,-1.504 -14.555,-2.562 -4.023,-1.059 -6.996,-2.227 -9.211,-3.43 -2.215,-1.203 -3.679,-2.426001 -4.414,-3.051 -0.734,-0.609 -0.734,-0.609 -0.734,-0.609"
       style="fill:none;stroke:#eb811b;stroke-width:3.68490291;stroke-linecap:round;stroke-linejoin:round;stroke-miterlimit:10;stroke-dasharray:none;stroke-opacity:1"
       id="path46"
       inkscape:connector-curvature="0" /><path
       d="m 715.02709,43.923556 c 0,0 0,0 -1.274,-0.558 -1.269,-0.563 -3.816,-1.68 -7.57,-2.801 -3.754,-1.117 -8.723,-2.235 -13.461,-2.965 -4.734,-0.730001 -9.242,-1.082 -13.906,-1.031 -4.656,0.054 -9.489,0.5 -13.539,1.065999 -4.047,0.571001 -7.332,1.266 -10.617,2.219001 -3.29,0.960999 -6.579,2.190999 -8.227,2.809 -1.649,0.625 -1.649,0.625 -1.649,0.625"
       style="fill:none;stroke:#eb811b;stroke-width:3.68490291;stroke-linecap:butt;stroke-linejoin:round;stroke-miterlimit:10;stroke-dasharray:none;stroke-opacity:1"
       id="path50"
       inkscape:connector-curvature="0" /><path
       d="m 943.11313,43.880556 c 0,0 0,0 1.691,-0.582 1.699,-0.574 5.09,-1.738 8.61,-2.668005 3.515,-0.945 7.164,-1.668 10.968,-2.179 3.809,-0.512 7.789,-0.817001 11.481,-0.899 3.683,-0.074 7.086,0.082 10.457,0.429999 3.371,0.336 6.707,0.875001 9.722,1.484001 3.028,0.606 5.73097,1.284999 8.32097,2.223005 2.59,0.941 5.07,2.152 6.304,2.754 1.243,0.605 1.243,0.605 1.243,0.605 0,0 0,0 -1.473,0.403 -1.477,0.402 -4.426,1.207 -7.125,1.81999 -2.688,0.621 -5.13297,1.04301 -8.24197,1.45301 -3.102,0.402 -6.883,0.793 -10.832,1 -3.961,0.215 -8.094,0.242 -11.899,0.098 -3.812,-0.141 -7.293,-0.45701 -10.336,-0.852 -3.039,-0.39101 -5.632,-0.863 -8.707,-1.72301 -3.078,-0.86299 -6.632,-2.11699 -8.406,-2.73799 -1.777,-0.629 -1.777,-0.629 -1.777,-0.629 z"
       style="fill:#ffffff;fill-opacity:1;fill-rule:evenodd;stroke:none;stroke-width:0.99999994"
       id="path42-6"
       inkscape:connector-curvature="0" /><path
       d="m 1022.3901,40.05255 c 0,0 0,0 -1.434,0.805006 -1.425,0.805 -4.292,2.414 -7.98,3.808 -3.684,1.387 -8.191,2.551 -13.40997,3.469 -5.231,0.92199 -11.168,1.61 -17.024,1.863 -5.855,0.254 -11.628,0.086 -17.058,-0.48 -5.43,-0.555 -10.524,-1.504 -14.555,-2.562 -4.023,-1.059 -6.996,-2.227 -9.211,-3.43 -2.215,-1.203 -3.679,-2.42601 -4.414,-3.051005 -0.734,-0.609 -0.734,-0.609 -0.734,-0.609"
       style="fill:none;stroke:#eb811b;stroke-width:3.68490291;stroke-linecap:round;stroke-linejoin:round;stroke-miterlimit:10;stroke-dasharray:none;stroke-opacity:1"
       id="path46-7"
       inkscape:connector-curvature="0" /><path
       d="m 1012.9491,44.673556 c 0,0 0,0 -1.274,-0.558 -1.269,-0.563 -3.816,-1.68 -7.57,-2.801 -3.754,-1.117005 -8.72297,-2.235005 -13.46097,-2.965005 -4.734,-0.730001 -9.242,-1.082 -13.906,-1.031 -4.656,0.054 -9.489,0.5 -13.539,1.065999 -4.047,0.571001 -7.332,1.266 -10.617,2.219001 -3.29,0.960995 -6.579,2.190995 -8.227,2.809005 -1.649,0.625 -1.649,0.625 -1.649,0.625"
       style="fill:none;stroke:#eb811b;stroke-width:3.68490291;stroke-linecap:butt;stroke-linejoin:round;stroke-miterlimit:10;stroke-dasharray:none;stroke-opacity:1"
       id="path50-5"
       inkscape:connector-curvature="0" /><path
       d="m 794.15209,43.505556 c 0,0 0,0 1.691,-0.582 1.69904,-0.574 5.09004,-1.738 8.61004,-2.668 3.515,-0.945 7.164,-1.668 10.968,-2.179 3.809,-0.512 7.789,-0.817001 11.481,-0.899 3.683,-0.074 7.086,0.082 10.457,0.429999 3.371,0.336 6.707,0.875001 9.722,1.484001 3.028,0.606 5.731,1.284999 8.321,2.223 2.59,0.941 5.07,2.152 6.304,2.754 1.243,0.605 1.243,0.605 1.243,0.605 0,0 0,0 -1.473,0.403 -1.477,0.402 -4.426,1.207 -7.125,1.819999 -2.688,0.621 -5.133,1.043001 -8.242,1.453001 -3.102,0.402 -6.883,0.793 -10.832,1 -3.961,0.215 -8.094,0.242 -11.899,0.098 -3.812,-0.141 -7.293,-0.457001 -10.336,-0.852 -3.039,-0.391001 -5.632,-0.863 -8.707,-1.723001 -3.078,-0.862999 -6.632,-2.116999 -8.406,-2.737999 -1.77704,-0.629 -1.77704,-0.629 -1.77704,-0.629 z"
       style="fill:#ffffff;fill-opacity:1;fill-rule:evenodd;stroke:none;stroke-width:0.99999994"
       id="path42-7"
       inkscape:connector-curvature="0" /><path
       d="m 873.42913,39.677555 c 0,0 0,0 -1.434,0.805001 -1.425,0.805 -4.292,2.414 -7.98,3.808 -3.684,1.387 -8.191,2.551 -13.41,3.469 -5.231,0.921999 -11.168,1.61 -17.024,1.863 -5.855,0.254 -11.628,0.086 -17.058,-0.48 -5.43,-0.555 -10.524,-1.504 -14.555,-2.562 -4.023,-1.059 -6.99604,-2.227 -9.21104,-3.43 -2.215,-1.203 -3.679,-2.426001 -4.414,-3.051 -0.734,-0.609 -0.734,-0.609 -0.734,-0.609"
       style="fill:none;stroke:#eb811b;stroke-width:3.68490291;stroke-linecap:round;stroke-linejoin:round;stroke-miterlimit:10;stroke-dasharray:none;stroke-opacity:1"
       id="path46-0"
       inkscape:connector-curvature="0" /><path
       d="m 863.98813,44.298556 c 0,0 0,0 -1.274,-0.558 -1.269,-0.563 -3.816,-1.68 -7.57,-2.801 -3.754,-1.117 -8.723,-2.235 -13.461,-2.965 -4.734,-0.730001 -9.242,-1.082 -13.906,-1.031 -4.656,0.054 -9.489,0.5 -13.539,1.065999 -4.047,0.571001 -7.332,1.266 -10.617,2.219001 -3.29,0.960999 -6.579,2.190999 -8.22704,2.809 -1.649,0.625 -1.649,0.625 -1.649,0.625"
       style="fill:none;stroke:#eb811b;stroke-width:3.68490291;stroke-linecap:butt;stroke-linejoin:round;stroke-miterlimit:10;stroke-dasharray:none;stroke-opacity:1"
       id="path50-9"
       inkscape:connector-curvature="0" /></g></svg>