<?xml version="1.0" encoding="UTF-8" standalone="no"?>
<!-- Created with Inkscape (http://www.inkscape.org/) -->

<svg
   xmlns:dc="http://purl.org/dc/elements/1.1/"
   xmlns:cc="http://creativecommons.org/ns#"
   xmlns:rdf="http://www.w3.org/1999/02/22-rdf-syntax-ns#"
   xmlns:svg="http://www.w3.org/2000/svg"
   xmlns="http://www.w3.org/2000/svg"
   xmlns:sodipodi="http://sodipodi.sourceforge.net/DTD/sodipodi-0.dtd"
   xmlns:inkscape="http://www.inkscape.org/namespaces/inkscape"
   version="1.1"
   id="svg2"
   xml:space="preserve"
   width="1089.3693"
   height="179.22932"
   viewBox="0 0 1089.3693 179.22933"
   sodipodi:docname="stori_11.svg"
   inkscape:version="0.92.2 5c3e80d, 2017-08-06"><metadata
     id="metadata8"><rdf:RDF><cc:Work
         rdf:about=""><dc:format>image/svg+xml</dc:format><dc:type
           rdf:resource="http://purl.org/dc/dcmitype/StillImage" /><dc:title></dc:title></cc:Work></rdf:RDF></metadata><defs
     id="defs6" /><sodipodi:namedview
     pagecolor="#ffffff"
     bordercolor="#666666"
     borderopacity="1"
     objecttolerance="10"
     gridtolerance="10"
     guidetolerance="10"
     inkscape:pageopacity="0"
     inkscape:pageshadow="2"
     inkscape:window-width="1494"
     inkscape:window-height="840"
     id="namedview4"
     showgrid="false"
     fit-margin-top="0"
     fit-margin-left="0"
     fit-margin-right="0"
     fit-margin-bottom="0"
     inkscape:zoom="0.43114777"
     inkscape:cx="484.21658"
     inkscape:cy="674.49499"
     inkscape:window-x="0"
     inkscape:window-y="0"
     inkscape:window-maximized="0"
     inkscape:current-layer="g10" /><g
     id="g10"
     inkscape:groupmode="layer"
     inkscape:label="stori_11"
     transform="scale(1.3333333)"><g
       id="g12"><g
         id="g14"><path
           d="M 101.531,1.5 C 46.285,1.5 1.5,30.75 1.5,66.836 c 0,36.082 44.785,65.336 100.031,65.336 29.446,0 55.922,-8.313 74.227,-21.539 18.32,13.445 45.012,21.914 74.734,21.914 29.449,0 55.922,-8.313 74.227,-21.539 18.32,13.445 45.011,21.914 74.734,21.914 55.246,0 100.035,-29.254 100.035,-65.336 C 499.488,31.5 454.699,2.25 399.453,2.25 370.008,2.25 343.531,10.559 325.227,23.785 306.906,10.344 280.215,1.875 250.492,1.875 221.047,1.875 194.574,10.188 176.27,23.41 157.945,9.969 131.254,1.5 101.531,1.5 Z"
           style="fill:#f2bd8a;fill-opacity:1;fill-rule:nonzero;stroke:#eb811b;stroke-width:3;stroke-linecap:butt;stroke-linejoin:miter;stroke-miterlimit:4;stroke-dasharray:none;stroke-opacity:1"
           id="path16"
           inkscape:connector-curvature="0" /></g><path
         d="m 67.73,66.363 c 0,0 0,0 1.692,-0.582 1.699,-0.574 5.09,-1.738 8.609,-2.668 3.516,-0.945 7.164,-1.668 10.969,-2.179 3.809,-0.512 7.789,-0.817 11.48,-0.899 3.684,-0.074 7.086,0.082 10.458,0.43 3.371,0.336 6.707,0.875 9.722,1.484 3.028,0.606 5.731,1.285 8.32,2.223 2.59,0.941 5.071,2.152 6.305,2.754 1.242,0.605 1.242,0.605 1.242,0.605 0,0 0,0 -1.472,0.403 -1.477,0.402 -4.426,1.207 -7.125,1.82 -2.688,0.621 -5.133,1.043 -8.242,1.453 -3.102,0.402 -6.883,0.793 -10.833,1 -3.96,0.215 -8.093,0.242 -11.898,0.098 C 93.145,72.164 89.664,71.848 86.621,71.453 83.582,71.062 80.988,70.59 77.914,69.73 74.836,68.867 71.281,67.613 69.508,66.992 67.73,66.363 67.73,66.363 67.73,66.363 Z"
         style="fill:#ffffff;fill-opacity:1;fill-rule:evenodd;stroke:none"
         id="path18"
         inkscape:connector-curvature="0" /><g
         id="g20"><path
           d="m 147.008,62.535 c 0,0 0,0 -1.434,0.805 -1.426,0.805 -4.293,2.414 -7.98,3.808 -3.684,1.387 -8.192,2.551 -13.41,3.469 -5.231,0.922 -11.168,1.61 -17.024,1.863 -5.855,0.254 -11.629,0.086 -17.058,-0.48 -5.43,-0.555 -10.524,-1.504 -14.555,-2.562 -4.024,-1.059 -6.996,-2.227 -9.211,-3.43 -2.215,-1.203 -3.68,-2.426 -4.414,-3.051 -0.734,-0.609 -0.734,-0.609 -0.734,-0.609"
           style="fill:none;stroke:#eb811b;stroke-width:3.68490291;stroke-linecap:round;stroke-linejoin:round;stroke-miterlimit:10;stroke-dasharray:none;stroke-opacity:1"
           id="path22"
           inkscape:connector-curvature="0" /></g><g
         id="g24"><path
           d="m 137.566,67.156 c 0,0 0,0 -1.273,-0.558 -1.27,-0.563 -3.816,-1.68 -7.57,-2.801 -3.754,-1.117 -8.723,-2.235 -13.461,-2.965 -4.735,-0.73 -9.242,-1.082 -13.907,-1.031 -4.656,0.054 -9.488,0.5 -13.539,1.066 -4.046,0.571 -7.332,1.266 -10.617,2.219 -3.289,0.961 -6.578,2.191 -8.226,2.809 -1.649,0.625 -1.649,0.625 -1.649,0.625"
           style="fill:none;stroke:#eb811b;stroke-width:3.68490291;stroke-linecap:butt;stroke-linejoin:round;stroke-miterlimit:10;stroke-dasharray:none;stroke-opacity:1"
           id="path26"
           inkscape:connector-curvature="0" /></g><path
         d="m 365.652,67.113 c 0,0 0,0 1.692,-0.582 1.699,-0.574 5.09,-1.738 8.609,-2.668 3.516,-0.945 7.164,-1.668 10.969,-2.179 3.808,-0.512 7.789,-0.817 11.48,-0.899 3.684,-0.074 7.086,0.082 10.457,0.43 3.371,0.336 6.707,0.875 9.723,1.484 3.027,0.606 5.73,1.285 8.32,2.223 2.59,0.941 5.071,2.152 6.305,2.754 1.242,0.605 1.242,0.605 1.242,0.605 0,0 0,0 -1.472,0.403 -1.477,0.402 -4.426,1.207 -7.125,1.82 -2.688,0.621 -5.133,1.043 -8.243,1.453 -3.101,0.402 -6.882,0.793 -10.832,1 -3.961,0.215 -8.093,0.242 -11.898,0.098 -3.813,-0.141 -7.293,-0.457 -10.336,-0.852 -3.039,-0.391 -5.633,-0.863 -8.707,-1.723 -3.078,-0.863 -6.633,-2.117 -8.406,-2.738 -1.778,-0.629 -1.778,-0.629 -1.778,-0.629 z"
         style="fill:#ffffff;fill-opacity:1;fill-rule:evenodd;stroke:none"
         id="path28"
         inkscape:connector-curvature="0" /><g
         id="g30"><path
           d="m 444.93,63.285 c 0,0 0,0 -1.434,0.805 -1.426,0.805 -4.293,2.414 -7.98,3.808 -3.684,1.387 -8.192,2.551 -13.411,3.469 -5.23,0.922 -11.167,1.61 -17.023,1.863 -5.855,0.254 -11.629,0.086 -17.059,-0.48 -5.429,-0.555 -10.523,-1.504 -14.554,-2.562 -4.024,-1.059 -6.996,-2.227 -9.211,-3.43 -2.215,-1.203 -3.68,-2.426 -4.414,-3.051 -0.735,-0.609 -0.735,-0.609 -0.735,-0.609"
           style="fill:none;stroke:#eb811b;stroke-width:3.68490291;stroke-linecap:round;stroke-linejoin:round;stroke-miterlimit:10;stroke-dasharray:none;stroke-opacity:1"
           id="path32"
           inkscape:connector-curvature="0" /></g><g
         id="g34"><path
           d="m 435.488,67.906 c 0,0 0,0 -1.273,-0.558 -1.27,-0.563 -3.817,-1.68 -7.57,-2.801 -3.754,-1.117 -8.723,-2.235 -13.461,-2.965 -4.735,-0.73 -9.243,-1.082 -13.907,-1.031 -4.656,0.054 -9.488,0.5 -13.539,1.066 -4.047,0.571 -7.332,1.266 -10.617,2.219 -3.289,0.961 -6.578,2.191 -8.226,2.809 -1.649,0.625 -1.649,0.625 -1.649,0.625"
           style="fill:none;stroke:#eb811b;stroke-width:3.68490291;stroke-linecap:butt;stroke-linejoin:round;stroke-miterlimit:10;stroke-dasharray:none;stroke-opacity:1"
           id="path36"
           inkscape:connector-curvature="0" /></g><path
         d="m 216.691,66.738 c 0,0 0,0 1.692,-0.582 1.699,-0.574 5.09,-1.738 8.609,-2.668 3.516,-0.945 7.164,-1.668 10.969,-2.179 3.809,-0.512 7.789,-0.817 11.48,-0.899 3.684,-0.074 7.086,0.082 10.457,0.43 3.372,0.336 6.707,0.875 9.723,1.484 3.027,0.606 5.731,1.285 8.32,2.223 2.59,0.941 5.071,2.152 6.305,2.754 1.242,0.605 1.242,0.605 1.242,0.605 0,0 0,0 -1.472,0.403 -1.477,0.402 -4.426,1.207 -7.125,1.82 -2.688,0.621 -5.133,1.043 -8.243,1.453 -3.101,0.402 -6.882,0.793 -10.832,1 -3.961,0.215 -8.093,0.242 -11.898,0.098 -3.813,-0.141 -7.293,-0.457 -10.336,-0.852 -3.039,-0.39 -5.633,-0.863 -8.707,-1.723 -3.078,-0.863 -6.633,-2.117 -8.406,-2.738 -1.778,-0.629 -1.778,-0.629 -1.778,-0.629 z"
         style="fill:#ffffff;fill-opacity:1;fill-rule:evenodd;stroke:none"
         id="path38"
         inkscape:connector-curvature="0" /><g
         id="g40"><path
           d="m 295.969,62.91 c 0,0 0,0 -1.434,0.805 -1.426,0.805 -4.293,2.414 -7.98,3.808 -3.684,1.387 -8.192,2.551 -13.41,3.469 -5.231,0.922 -11.168,1.61 -17.024,1.863 -5.855,0.254 -11.629,0.086 -17.059,-0.48 -5.429,-0.555 -10.523,-1.504 -14.554,-2.563 -4.024,-1.058 -6.996,-2.226 -9.211,-3.429 -2.215,-1.203 -3.68,-2.426 -4.414,-3.051 -0.735,-0.609 -0.735,-0.609 -0.735,-0.609"
           style="fill:none;stroke:#eb811b;stroke-width:3.68490291;stroke-linecap:round;stroke-linejoin:round;stroke-miterlimit:10;stroke-dasharray:none;stroke-opacity:1"
           id="path42"
           inkscape:connector-curvature="0" /></g><g
         id="g44"><path
           d="m 286.527,67.531 c 0,0 0,0 -1.273,-0.558 -1.27,-0.563 -3.816,-1.68 -7.57,-2.801 -3.754,-1.117 -8.723,-2.234 -13.461,-2.965 -4.735,-0.73 -9.243,-1.082 -13.907,-1.031 -4.656,0.054 -9.488,0.5 -13.539,1.066 -4.047,0.57 -7.332,1.266 -10.617,2.219 -3.289,0.961 -6.578,2.191 -8.226,2.809 -1.649,0.625 -1.649,0.625 -1.649,0.625"
           style="fill:none;stroke:#eb811b;stroke-width:3.68490291;stroke-linecap:butt;stroke-linejoin:round;stroke-miterlimit:10;stroke-dasharray:none;stroke-opacity:1"
           id="path46"
           inkscape:connector-curvature="0" /></g></g><path
       d="m 790.027,67.211 c 0,36.082 -44.789,65.33599 -100.035,65.33599 -55.247,0 -100.032,-29.25399 -100.032,-65.33599 0,-36.085996 44.785,-65.335996 100.032,-65.335996 55.246,0 100.035,29.25 100.035,65.335996 z"
       style="fill:#f2bd8a;fill-opacity:1;fill-rule:nonzero;stroke:#eb811b;stroke-width:3;stroke-linecap:butt;stroke-linejoin:miter;stroke-miterlimit:4;stroke-dasharray:none;stroke-opacity:1"
       id="path40"
       inkscape:connector-curvature="0" /><path
       d="m 656.191,66.738 c 0,0 0,0 1.691,-0.582 1.699,-0.574 5.09,-1.738 8.61,-2.668 3.515,-0.945 7.164,-1.668 10.968,-2.179 3.809,-0.512 7.789,-0.817 11.481,-0.899 3.683,-0.074 7.086,0.082 10.457,0.43 3.371,0.336 6.707,0.875 9.722,1.484 3.028,0.606 5.731,1.285 8.321,2.223 2.59,0.941 5.07,2.152 6.304,2.754 1.243,0.605 1.243,0.605 1.243,0.605 0,0 0,0 -1.473,0.403 -1.477,0.402 -4.426,1.207 -7.125,1.82 -2.688,0.621 -5.133,1.043 -8.242,1.453 -3.102,0.402 -6.883,0.793 -10.832,1 -3.961,0.215 -8.094,0.242 -11.899,0.098 -3.812,-0.141 -7.293,-0.457 -10.336,-0.852 -3.039,-0.391 -5.632,-0.863 -8.707,-1.723 -3.078,-0.863 -6.632,-2.117 -8.406,-2.738 -1.777,-0.629 -1.777,-0.629 -1.777,-0.629 z"
       style="fill:#ffffff;fill-opacity:1;fill-rule:evenodd;stroke:none;stroke-width:0.99999994"
       id="path42-3"
       inkscape:connector-curvature="0" /><path
       d="m 735.468,62.91 c 0,0 0,0 -1.434,0.805 -1.425,0.805 -4.292,2.414 -7.98,3.808 -3.684,1.387 -8.191,2.551 -13.41,3.469 -5.231,0.922 -11.168,1.61 -17.024,1.863 -5.855,0.254 -11.628,0.086 -17.058,-0.48 -5.43,-0.555 -10.524,-1.504 -14.555,-2.562 -4.023,-1.059 -6.996,-2.227 -9.211,-3.43 -2.215,-1.203 -3.679,-2.426 -4.414,-3.051 -0.734,-0.609 -0.734,-0.609 -0.734,-0.609"
       style="fill:none;stroke:#eb811b;stroke-width:3.68490291;stroke-linecap:round;stroke-linejoin:round;stroke-miterlimit:10;stroke-dasharray:none;stroke-opacity:1"
       id="path46-6"
       inkscape:connector-curvature="0" /><path
       d="m 726.027,67.531 c 0,0 0,0 -1.274,-0.558 -1.269,-0.563 -3.816,-1.68 -7.57,-2.801 -3.754,-1.117 -8.723,-2.235 -13.461,-2.965 -4.734,-0.73 -9.242,-1.082 -13.906,-1.031 -4.656,0.054 -9.489,0.5 -13.539,1.066 -4.047,0.571 -7.332,1.266 -10.617,2.219 -3.29,0.961 -6.579,2.191 -8.227,2.809 -1.649,0.625 -1.649,0.625 -1.649,0.625"
       style="fill:none;stroke:#eb811b;stroke-width:3.68490291;stroke-linecap:butt;stroke-linejoin:round;stroke-miterlimit:10;stroke-dasharray:none;stroke-opacity:1"
       id="path50"
       inkscape:connector-curvature="0" /><path
       d="m 676.64,108.96099 c -2.789,7.66401 -15.301,10.144 -27.945,5.54301 C 636.05,109.902 628.062,99.957 630.851,92.29699 633.64,84.633 646.152,82.152 658.796,86.754 c 12.641,4.60099 20.633,14.54299 17.844,22.20699 z"
       style="fill:#fcf2e8;fill-opacity:0.43243199;fill-rule:nonzero;stroke:none;stroke-width:0.99999994"
       id="path58"
       inkscape:connector-curvature="0" /><path
       d="m 676.64031,108.96042 c -2.78947,7.66401 -15.30145,10.14495 -27.94545,5.54291 -12.64436,-4.60103 -20.63365,-14.54609 -17.84428,-22.20673 2.78947,-7.66399 15.30108,-10.14394 27.94545,-5.5429 12.64064,4.60195 20.63238,14.54336 17.84428,22.20672 z"
       style="fill:none;stroke:#eb811b;stroke-width:3;stroke-linecap:butt;stroke-linejoin:miter;stroke-miterlimit:4;stroke-dasharray:8.99999976, 2.99999992;stroke-dashoffset:0;stroke-opacity:1"
       id="path62"
       inkscape:connector-curvature="0" /><path
       d="m 462.3687,97.26755 c 1.41666,8.03173 -8.17906,16.43547 -21.42958,18.77289 -13.25189,2.33705 -25.1422,-2.28158 -26.55686,-10.30984 -1.41665,-8.03171 8.17856,-16.436319 21.42958,-18.772863 13.24793,-2.335932 25.1402,2.278094 26.55686,10.309813 z"
       style="fill:#fcf2e8;fill-opacity:0.43243199;fill-rule:nonzero;stroke:none;stroke-width:0.99999994"
       id="path58-5"
       inkscape:connector-curvature="0" /><path
       d="m 462.36868,97.266901 c 1.41625,8.031969 -8.17897,16.436509 -21.43001,18.773029 -13.25086,2.33757 -25.14231,-2.28047 -26.55697,-10.30946 -1.41624,-8.031943 8.17915,-16.43544 21.43002,-18.773014 13.24808,-2.334912 25.13985,2.278731 26.55696,10.309445 z"
       style="fill:none;stroke:#eb811b;stroke-width:3;stroke-linecap:butt;stroke-linejoin:miter;stroke-miterlimit:4;stroke-dasharray:8.99999976, 2.99999992;stroke-dashoffset:0;stroke-opacity:1"
       id="path62-6"
       inkscape:connector-curvature="0" /><text
       xml:space="preserve"
       style="font-style:normal;font-weight:normal;font-size:30px;line-height:125%;font-family:sans-serif;letter-spacing:0px;word-spacing:0px;fill:#000000;fill-opacity:1;stroke:none;stroke-width:0.75px;stroke-linecap:butt;stroke-linejoin:miter;stroke-opacity:1"
       x="523.16748"
       y="75.277542"
       id="text918"><tspan
         sodipodi:role="line"
         id="tspan916"
         x="523.16748"
         y="101.82051"
         style="stroke-width:0.75px"></tspan></text>
<text
       xml:space="preserve"
       style="font-style:normal;font-variant:normal;font-weight:normal;font-stretch:normal;font-size:30px;line-height:125%;font-family:'Noto Sans Kharoshthi';-inkscape-font-specification:'Noto Sans Kharoshthi';letter-spacing:0px;word-spacing:0px;fill:#000000;fill-opacity:1;stroke:none;stroke-width:0.75px;stroke-linecap:butt;stroke-linejoin:miter;stroke-opacity:1"
       x="521.42792"
       y="70.92868"
       id="text930"><tspan
         sodipodi:role="line"
         id="tspan928"
         x="521.42792"
         y="98.090446"
         style="stroke-width:0.75px"></tspan></text>
<ellipse
       style="opacity:1;fill:#000000;fill-opacity:1;stroke:#000000;stroke-width:0.80839115;stroke-miterlimit:10;stroke-dasharray:none;stroke-opacity:1"
       id="path932"
       cx="530.94055"
       cy="71.693283"
       rx="5.026053"
       ry="4.3177814" /><ellipse
       style="opacity:1;fill:#000000;fill-opacity:1;stroke:#000000;stroke-width:0.80839115;stroke-miterlimit:10;stroke-dasharray:none;stroke-opacity:1"
       id="path932-9"
       cx="546.01611"
       cy="71.656342"
       rx="5.026053"
       ry="4.3177814" /><ellipse
       style="opacity:1;fill:#000000;fill-opacity:1;stroke:#000000;stroke-width:0.80839115;stroke-miterlimit:10;stroke-dasharray:none;stroke-opacity:1"
       id="path932-99"
       cx="560.49524"
       cy="71.891197"
       rx="5.026053"
       ry="4.3177814" /></g></svg>