<?xml version="1.0" encoding="UTF-8" standalone="no"?>
<!-- Created with Inkscape (http://www.inkscape.org/) -->

<svg
   xmlns:dc="http://purl.org/dc/elements/1.1/"
   xmlns:cc="http://creativecommons.org/ns#"
   xmlns:rdf="http://www.w3.org/1999/02/22-rdf-syntax-ns#"
   xmlns:svg="http://www.w3.org/2000/svg"
   xmlns="http://www.w3.org/2000/svg"
   xmlns:sodipodi="http://sodipodi.sourceforge.net/DTD/sodipodi-0.dtd"
   xmlns:inkscape="http://www.inkscape.org/namespaces/inkscape"
   version="1.1"
   id="svg2"
   xml:space="preserve"
   width="590.64099"
   height="187.32188"
   viewBox="0 0 590.64099 187.32188"
   sodipodi:docname="stori_7.svg"
   inkscape:version="0.92.2 5c3e80d, 2017-08-06"><metadata
     id="metadata8"><rdf:RDF><cc:Work
         rdf:about=""><dc:format>image/svg+xml</dc:format><dc:type
           rdf:resource="http://purl.org/dc/dcmitype/StillImage" /><dc:title></dc:title></cc:Work></rdf:RDF></metadata><defs
     id="defs6" /><sodipodi:namedview
     pagecolor="#ffffff"
     bordercolor="#666666"
     borderopacity="1"
     objecttolerance="10"
     gridtolerance="10"
     guidetolerance="10"
     inkscape:pageopacity="0"
     inkscape:pageshadow="2"
     inkscape:window-width="1744"
     inkscape:window-height="920"
     id="namedview4"
     showgrid="false"
     inkscape:zoom="1.9504234"
     inkscape:cx="338.91937"
     inkscape:cy="115.76291"
     inkscape:window-x="62"
     inkscape:window-y="47"
     inkscape:window-maximized="0"
     inkscape:current-layer="g10" /><g
     id="g10"
     inkscape:groupmode="layer"
     inkscape:label="stori_7"
     transform="matrix(1.3333333,0,0,1.3333333,0,6.0163802e-6)"><g
       id="g12"><path
         d="m 184.922,93.59 c 4.941,0 8.941,-16.848 8.941,-37.641 0,-20.789 -4,-37.637 -8.941,-37.637 -4.938,0 -8.945,16.848 -8.945,37.637 0,20.793 4.007,37.641 8.945,37.641"
         style="fill:#f2bd8b;fill-opacity:0.53333297;fill-rule:evenodd;stroke:none"
         id="path14"
         inkscape:connector-curvature="0" /><g
         id="g16"><path
           d="m 184.922,93.59 c 4.941,0 8.941,-16.848 8.941,-37.641 0,-20.789 -4,-37.637 -8.941,-37.637 -4.938,0 -8.945,16.848 -8.945,37.637 0,20.793 4.007,37.641 8.945,37.641"
           style="fill:none;stroke:#eb811b;stroke-width:3.00000008;stroke-linecap:butt;stroke-linejoin:round;stroke-miterlimit:10;stroke-dasharray:none;stroke-opacity:1"
           id="path18"
           inkscape:connector-curvature="0" /></g><g
         id="g20"><path
           d="m 187.879,20.434 c 0,0 0,0 -0.219,-0.246 -0.219,-0.25 -0.66,-0.743 -1.152,-1.098 -0.488,-0.348 -1.043,-0.563 -3.887,-0.902 -2.848,-0.348 -7.988,-0.813 -15.961,-1.594 -7.969,-0.789 -18.762,-1.899 -31.109,-5.551 C 123.211,7.379 109.324,1.172 92.656,1.902 75.992,2.633 56.543,10.305 45.781,27.477 35.02,44.648 32.934,71.32 42.484,89.777 c 9.547,18.45 30.731,28.684 49.301,30.692 18.578,2.008 34.555,-4.199 48.082,-9.574 13.528,-5.375 24.606,-9.911 31.903,-12.715 7.304,-2.797 10.824,-3.86 12.937,-4.785 2.109,-0.922 2.82,-1.696 2.875,-1.735 0.059,-0.043 -0.531,0.656 -1.359,0.996 -0.821,0.34 -1.887,0.313 -2.891,-0.441 -1.012,-0.754 -1.953,-2.223 -2.738,-3.988 -0.785,-1.77 -1.418,-3.829 -2,-6.407 -0.582,-2.578 -1.106,-5.672 -1.5,-8.668 -0.395,-2.996 -0.637,-5.906 -0.801,-8.726 -0.168,-2.821 -0.238,-5.551 -0.231,-8.52 0.012,-2.961 0.106,-6.156 0.231,-8.742 0.133,-2.574 0.297,-4.547 0.668,-7.32 0.363,-2.778 0.941,-6.375 1.418,-8.883 0.484,-2.512 0.863,-3.93 1.242,-5.125 0.371,-1.188 0.734,-2.156 1.129,-3.02 0.387,-0.863 0.805,-1.628 1.465,-2.363 0.66,-0.73 1.566,-1.43 2.547,-1.43 0.984,0.008 2.05,0.707 2.582,1.063 0.535,0.348 0.535,0.348 0.535,0.348 z"
           style="fill:#f2bd8a;fill-opacity:1;fill-rule:evenodd;stroke:#eb811b;stroke-width:3.00000008;stroke-linecap:butt;stroke-linejoin:round;stroke-miterlimit:10;stroke-dasharray:none;stroke-opacity:1"
           id="path22"
           inkscape:connector-curvature="0" /></g><path
         d="m 79.895,60.641 c 0,0 0,0 0.519,-0.196 0.512,-0.183 1.547,-0.558 2.953,-1.047 1.395,-0.488 3.164,-1.093 5.086,-1.668 1.922,-0.574 4,-1.128 6.328,-1.574 2.328,-0.449 4.91,-0.797 7.235,-0.929 2.32,-0.133 4.39,-0.059 6.453,0.171 2.062,0.219 4.113,0.606 6.222,1.145 2.114,0.539 4.282,1.238 6.219,1.926 1.934,0.695 3.649,1.379 5.094,1.992 1.445,0.605 2.621,1.129 4.031,1.891 1.41,0.753 3.063,1.75 3.883,2.246 0.82,0.5 0.82,0.5 0.82,0.5 0,0 0,0 -0.961,0.363 -0.968,0.367 -2.898,1.098 -5.074,1.824 -2.176,0.723 -4.586,1.43 -7.078,1.992 -2.492,0.555 -5.059,0.946 -7.242,1.153 -2.172,0.215 -3.949,0.226 -5.781,0.132 -1.829,-0.089 -3.723,-0.296 -5.59,-0.597 -1.86,-0.297 -3.707,-0.688 -5.676,-1.227 -1.973,-0.531 -4.07,-1.203 -5.762,-1.808 -1.691,-0.606 -2.969,-1.145 -4.433,-1.848 -1.465,-0.691 -3.11,-1.551 -4.352,-2.316 -1.234,-0.77 -2.066,-1.45 -2.48,-1.786 -0.414,-0.339 -0.414,-0.339 -0.414,-0.339 z"
         style="fill:#ffffff;fill-opacity:1;fill-rule:evenodd;stroke:none"
         id="path24"
         inkscape:connector-curvature="0" /><g
         id="g26"><path
           d="m 70.961,54.992 c 0,0 0,0 2.668,1.926 2.656,1.934 7.976,5.789 14.535,8.711 6.563,2.918 14.356,4.894 21.512,5.094 7.156,0.191 13.683,-1.387 20.5,-3.86 6.82,-2.472 13.941,-5.832 17.5,-7.515 3.562,-1.684 3.562,-1.684 3.562,-1.684"
           style="fill:none;stroke:#eb811b;stroke-width:3.00000008;stroke-linecap:round;stroke-linejoin:round;stroke-miterlimit:10;stroke-dasharray:none;stroke-opacity:1"
           id="path28"
           inkscape:connector-curvature="0" /></g><g
         id="g30"><path
           d="m 79.34,60.848 c 0,0 0,0 2.945,-1.078 2.953,-1.071 8.863,-3.219 14.735,-4.196 5.871,-0.972 11.722,-0.773 18.136,0.953 6.406,1.727 13.387,4.989 16.875,6.629 3.492,1.633 3.492,1.633 3.492,1.633"
           style="fill:none;stroke:#eb811b;stroke-width:3.00000008;stroke-linecap:round;stroke-linejoin:round;stroke-miterlimit:10;stroke-dasharray:none;stroke-opacity:1"
           id="path32"
           inkscape:connector-curvature="0" /></g><path
         d="m 262.508,93.59 c -4.938,0 -8.938,-16.848 -8.938,-37.641 0,-20.789 4,-37.637 8.938,-37.637 4.937,0 8.945,16.848 8.945,37.637 0,20.793 -4.008,37.641 -8.945,37.641"
         style="fill:#f2bd8b;fill-opacity:0.53333297;fill-rule:evenodd;stroke:none"
         id="path34"
         inkscape:connector-curvature="0" /><g
         id="g36"><path
           d="m 262.508,93.59 c -4.938,0 -8.938,-16.848 -8.938,-37.641 0,-20.789 4,-37.637 8.938,-37.637 4.937,0 8.945,16.848 8.945,37.637 0,20.793 -4.008,37.641 -8.945,37.641"
           style="fill:none;stroke:#eb811b;stroke-width:3.00000008;stroke-linecap:butt;stroke-linejoin:round;stroke-miterlimit:10;stroke-dasharray:none;stroke-opacity:1"
           id="path38"
           inkscape:connector-curvature="0" /></g><g
         id="g40"><path
           d="m 259.547,20.434 c 0,0 0,0 0.223,-0.246 0.218,-0.25 0.66,-0.743 1.152,-1.098 0.5,-0.348 1.047,-0.563 3.887,-0.902 2.847,-0.348 7.992,-0.813 15.961,-1.594 7.972,-0.789 18.761,-1.899 31.101,-5.551 12.352,-3.664 26.234,-9.871 42.906,-9.141 16.661,0.731 36.11,8.403 46.875,25.575 10.762,17.171 12.844,43.843 3.297,62.3 -9.551,18.45 -30.73,28.684 -49.308,30.692 -18.575,2.008 -34.547,-4.199 -48.075,-9.574 -13.527,-5.375 -24.605,-9.911 -31.902,-12.715 -7.305,-2.797 -10.82,-3.86 -12.937,-4.785 -2.114,-0.922 -2.821,-1.696 -2.879,-1.735 -0.063,-0.043 0.527,0.656 1.355,0.996 0.828,0.34 1.895,0.313 2.899,-0.441 1.003,-0.754 1.949,-2.223 2.734,-3.988 0.785,-1.77 1.418,-3.829 2,-6.407 0.582,-2.578 1.109,-5.672 1.5,-8.668 0.387,-2.996 0.641,-5.906 0.801,-8.726 0.168,-2.821 0.238,-5.551 0.23,-8.52 -0.012,-2.961 -0.105,-6.156 -0.23,-8.742 -0.133,-2.574 -0.293,-4.547 -0.664,-7.32 -0.368,-2.778 -0.942,-6.375 -1.418,-8.883 -0.485,-2.512 -0.864,-3.93 -1.243,-5.125 -0.371,-1.188 -0.738,-2.156 -1.128,-3.02 -0.395,-0.863 -0.809,-1.628 -1.469,-2.363 -0.66,-0.73 -1.563,-1.43 -2.547,-1.43 -0.98,0.008 -2.055,0.707 -2.586,1.063 -0.535,0.348 -0.535,0.348 -0.535,0.348 z"
           style="fill:#f2bd8a;fill-opacity:1;fill-rule:evenodd;stroke:#eb811b;stroke-width:3.00000008;stroke-linecap:butt;stroke-linejoin:round;stroke-miterlimit:10;stroke-dasharray:none;stroke-opacity:1"
           id="path42"
           inkscape:connector-curvature="0" /></g><path
         d="m 367.539,60.641 c 0,0 0,0 -0.519,-0.196 -0.52,-0.183 -1.551,-0.558 -2.954,-1.047 -1.398,-0.488 -3.171,-1.093 -5.086,-1.668 -1.925,-0.574 -4,-1.128 -6.332,-1.574 -2.328,-0.449 -4.91,-0.797 -7.23,-0.929 -2.332,-0.133 -4.395,-0.059 -6.457,0.171 -2.063,0.219 -4.117,0.606 -6.223,1.145 -2.113,0.539 -4.281,1.238 -6.215,1.926 -1.937,0.695 -3.656,1.379 -5.093,1.992 -1.446,0.605 -2.625,1.129 -4.035,1.891 -1.418,0.753 -3.059,1.75 -3.879,2.246 -0.828,0.5 -0.828,0.5 -0.828,0.5 0,0 0,0 0.968,0.363 0.969,0.367 2.903,1.098 5.071,1.824 2.175,0.723 4.582,1.43 7.074,1.992 2.496,0.555 5.066,0.946 7.238,1.153 2.176,0.215 3.957,0.226 5.789,0.132 1.84,-0.089 3.727,-0.296 5.586,-0.597 1.867,-0.297 3.711,-0.688 5.684,-1.227 1.968,-0.531 4.066,-1.203 5.757,-1.808 1.692,-0.606 2.969,-1.145 4.434,-1.848 1.469,-0.691 3.109,-1.551 4.352,-2.316 1.234,-0.77 2.07,-1.45 2.484,-1.786 0.414,-0.339 0.414,-0.339 0.414,-0.339 z"
         style="fill:#ffffff;fill-opacity:1;fill-rule:evenodd;stroke:none"
         id="path44"
         inkscape:connector-curvature="0" /><g
         id="g46"><path
           d="m 376.465,54.992 c 0,0 0,0 -2.66,1.926 -2.66,1.934 -7.985,5.789 -14.539,8.711 -6.559,2.918 -14.356,4.894 -21.512,5.094 -7.156,0.191 -13.68,-1.387 -20.5,-3.86 -6.82,-2.472 -13.942,-5.832 -17.504,-7.515 -3.559,-1.684 -3.559,-1.684 -3.559,-1.684"
           style="fill:none;stroke:#eb811b;stroke-width:3.00000008;stroke-linecap:round;stroke-linejoin:round;stroke-miterlimit:10;stroke-dasharray:none;stroke-opacity:1"
           id="path48"
           inkscape:connector-curvature="0" /></g><g
         id="g50"><path
           d="m 368.094,60.848 c 0,0 0,0 -2.949,-1.078 -2.954,-1.071 -8.86,-3.219 -14.731,-4.196 -5.875,-0.972 -11.726,-0.773 -18.137,0.953 -6.414,1.727 -13.386,4.989 -16.882,6.629 -3.489,1.633 -3.489,1.633 -3.489,1.633"
           style="fill:none;stroke:#eb811b;stroke-width:3.00000008;stroke-linecap:round;stroke-linejoin:round;stroke-miterlimit:10;stroke-dasharray:none;stroke-opacity:1"
           id="path52"
           inkscape:connector-curvature="0" /></g><g
         id="g54"><path
           d="M 193.66,63.984 V 48.863"
           style="fill:none;stroke:#000000;stroke-width:3.68490291;stroke-linecap:butt;stroke-linejoin:round;stroke-miterlimit:10;stroke-dasharray:none;stroke-opacity:1"
           id="path56"
           inkscape:connector-curvature="0" /></g><g
         id="g58"><path
           d="m 193.66,48.863 -4.191,13.231 h 8.379 z"
           style="fill:#eb811b;fill-opacity:1;fill-rule:evenodd;stroke:#eb811b;stroke-width:3.68490291;stroke-linecap:butt;stroke-linejoin:round;stroke-miterlimit:10;stroke-dasharray:none;stroke-opacity:1"
           id="path60"
           inkscape:connector-curvature="0" /></g><g
         id="g62"><path
           d="M 253.828,63.984 V 48.863"
           style="fill:none;stroke:#000000;stroke-width:3.68490291;stroke-linecap:butt;stroke-linejoin:round;stroke-miterlimit:10;stroke-dasharray:none;stroke-opacity:1"
           id="path64"
           inkscape:connector-curvature="0" /></g><g
         id="g66"><path
           d="m 253.828,48.863 -4.187,13.231 h 8.375 z"
           style="fill:#eb811b;fill-opacity:1;fill-rule:evenodd;stroke:#eb811b;stroke-width:3.68490291;stroke-linecap:butt;stroke-linejoin:round;stroke-miterlimit:10;stroke-dasharray:none;stroke-opacity:1"
           id="path68"
           inkscape:connector-curvature="0" /></g><path
         d="m 179.312,56.422 c 0,-1.883 -1.445,-3.402 -3.234,-3.402 -1.785,0 -3.234,1.519 -3.234,3.402 0,1.875 1.449,3.406 3.234,3.406 1.789,0 3.234,-1.531 3.234,-3.406"
         style="fill:#000000;fill-opacity:1;fill-rule:evenodd;stroke:none"
         id="path70"
         inkscape:connector-curvature="0" /><path
         d="m 274.59,56.422 c 0,-1.883 -1.453,-3.402 -3.235,-3.402 -1.789,0 -3.234,1.519 -3.234,3.402 0,1.875 1.445,3.406 3.234,3.406 1.782,0 3.235,-1.531 3.235,-3.406"
         style="fill:#000000;fill-opacity:1;fill-rule:evenodd;stroke:none"
         id="path72"
         inkscape:connector-curvature="0" /><path
         d="m 217.277,63.309 c 1.2,-1.438 2.168,-2.348 3.559,-3.653 1.66,-1.527 2.398,-2.258 2.777,-2.703 1.957,-2.015 2.926,-3.719 2.926,-3.941 0,-0.242 -0.211,-0.242 -0.273,-0.242 -0.192,0 -0.254,0.109 -0.399,0.332 -0.695,1.238 -1.347,1.859 -2.086,1.859 -0.59,0 -0.883,-0.266 -1.41,-0.953 -0.59,-0.754 -1.051,-1.238 -1.875,-1.238 -2.019,0 -3.238,2.656 -3.238,3.277 0,0.086 0.019,0.265 0.273,0.265 0.211,0 0.25,-0.113 0.336,-0.332 0.461,-1.152 1.809,-1.375 2.336,-1.375 0.57,0 1.137,0.223 1.727,0.465 1.05,0.489 1.492,0.489 1.769,0.489 0.207,0 0.313,0 0.442,-0.043 -0.907,1.152 -2.422,2.546 -3.664,3.742 l -2.821,2.722 c -1.683,1.817 -2.715,3.543 -2.715,3.766 0,0.18 0.125,0.223 0.293,0.223 0.172,0 0.211,-0.024 0.403,-0.379 0.441,-0.731 1.324,-1.813 2.355,-1.813 0.59,0 0.863,0.2 1.434,0.93 0.523,0.641 0.988,1.262 1.894,1.262 2.715,0 4.27,-3.723 4.27,-4.387 0,-0.109 -0.02,-0.285 -0.293,-0.285 -0.231,0 -0.254,0.109 -0.336,0.398 -0.609,1.727 -2.254,2.434 -3.348,2.434 -0.59,0 -1.136,-0.199 -1.726,-0.465 -1.114,-0.465 -1.41,-0.465 -1.766,-0.465 -0.297,0 -0.59,0 -0.844,0.11 z"
         style="fill:#000000;fill-opacity:1;fill-rule:nonzero;stroke:none"
         id="path74"
         inkscape:connector-curvature="0" /><g
         id="g76"><path
           d="m 175.977,56.137 c 0,0 0,0 -15.082,-9.016 C 145.801,38.098 115.633,20.062 91.898,20.434 68.16,20.809 50.859,39.598 51.422,58.75 51.977,77.898 70.395,97.426 94.145,97.094 117.891,96.77 146.988,76.602 161.531,66.508 176.078,56.422 176.078,56.422 176.078,56.422"
           style="fill:none;stroke:#eb811b;stroke-width:3.00000008;stroke-linecap:butt;stroke-linejoin:round;stroke-miterlimit:10;stroke-dasharray:none;stroke-opacity:1"
           id="path78"
           inkscape:connector-curvature="0" /></g><g
         id="g80"><path
           d="m 176.078,56.422 c 0,0 0,0 -2.219,0.23 -2.211,0.235 -6.644,0.696 -11.921,1.567 -5.274,0.863 -11.391,2.125 -16.485,3.293 -5.09,1.164 -9.152,2.234 -11.18,2.765 -2.027,0.532 -2.027,0.532 -2.027,0.532"
           style="fill:none;stroke:#eb811b;stroke-width:3.00000008;stroke-linecap:butt;stroke-linejoin:round;stroke-miterlimit:10;stroke-dasharray:none;stroke-opacity:1"
           id="path82"
           inkscape:connector-curvature="0" /></g><g
         id="g84"><path
           d="m 132.246,64.809 c 0,0 0,0 -1.109,0.687 -1.106,0.68 -3.325,2.047 -5.16,3.535 -1.848,1.492 -3.313,3.117 -4.2,4.852 -0.875,1.742 -1.175,3.605 -1.086,5.988 0.098,2.399 0.582,5.324 1.614,7.949 1.039,2.629 2.617,4.965 4.531,7.332 1.918,2.371 4.168,4.786 6.723,6.743 2.554,1.957 5.41,3.46 7.382,4.265 1.977,0.813 3.067,0.93 4.137,0.93 1.067,0 2.121,-0.117 2.645,-0.176 0.527,-0.059 0.527,-0.059 0.527,-0.059"
           style="fill:none;stroke:#eb811b;stroke-width:2.25000006;stroke-linecap:butt;stroke-linejoin:round;stroke-miterlimit:10;stroke-dasharray:6.75000017,2.25000006;stroke-opacity:1;stroke-dashoffset:0"
           id="path86"
           inkscape:connector-curvature="0" /></g><g
         id="g88"><path
           d="m 148.398,107.488 c 0,0 0,0 0.598,-0.258 0.594,-0.265 1.793,-0.781 3.024,-1.824 1.234,-1.031 2.511,-2.574 4.066,-4.812 1.551,-2.239 3.398,-5.16 5.09,-8.27 1.687,-3.097 3.226,-6.383 4.902,-10.254 1.672,-3.875 3.473,-8.34 5.164,-12.711 1.684,-4.379 3.262,-8.66 4.047,-10.793 0.789,-2.144 0.789,-2.144 0.789,-2.144"
           style="fill:none;stroke:#eb811b;stroke-width:3.00000008;stroke-linecap:butt;stroke-linejoin:round;stroke-miterlimit:10;stroke-dasharray:none;stroke-opacity:1"
           id="path90"
           inkscape:connector-curvature="0" /></g><g
         id="g92"><path
           d="m 52.391,53.508 -1.055,5.39"
           style="fill:none;stroke:#000000;stroke-width:3.68490291;stroke-linecap:butt;stroke-linejoin:round;stroke-miterlimit:10;stroke-dasharray:none;stroke-opacity:1"
           id="path94"
           inkscape:connector-curvature="0" /></g><g
         id="g96"><path
           d="M 51.336,58.898 57.969,46.82 49.766,45.047 Z"
           style="fill:#eb811b;fill-opacity:1;fill-rule:evenodd;stroke:#eb811b;stroke-width:3.68490291;stroke-linecap:butt;stroke-linejoin:round;stroke-miterlimit:10;stroke-dasharray:none;stroke-opacity:1"
           id="path98"
           inkscape:connector-curvature="0" /></g><g
         id="g100"><path
           d="m 165.68,82.566 -2.59,6.282"
           style="fill:none;stroke:#000000;stroke-width:3.68490291;stroke-linecap:butt;stroke-linejoin:round;stroke-miterlimit:10;stroke-dasharray:none;stroke-opacity:1"
           id="path102"
           inkscape:connector-curvature="0" /></g><g
         id="g104"><path
           d="m 163.09,88.848 8.848,-10.379 -7.684,-3.508 z"
           style="fill:#eb811b;fill-opacity:1;fill-rule:evenodd;stroke:#eb811b;stroke-width:3.68490291;stroke-linecap:butt;stroke-linejoin:round;stroke-miterlimit:10;stroke-dasharray:none;stroke-opacity:1"
           id="path106"
           inkscape:connector-curvature="0" /></g><path
         d="m 7.262,33.27 c -0.149,0.488 -0.149,0.554 -0.528,1.109 -0.609,0.82 -1.832,2.082 -3.156,2.082 -1.137,0 -1.769,-1.086 -1.769,-2.813 0,-1.617 0.863,-4.894 1.39,-6.113 0.949,-2.058 2.254,-3.125 3.348,-3.125 1.832,0 2.187,2.414 2.187,2.637 0,0.047 -0.082,0.422 -0.105,0.488 z M 9.051,25.762 C 8.734,25.012 7.977,23.836 6.547,23.836 3.391,23.836 0,28.109 0,32.453 c 0,2.899 1.621,4.582 3.492,4.582 1.539,0 2.844,-1.262 3.621,-2.215 0.297,1.731 1.602,2.215 2.422,2.215 0.84,0 1.516,-0.531 2.02,-1.57 0.441,-0.996 0.82,-2.793 0.82,-2.903 0,-0.156 -0.105,-0.265 -0.273,-0.265 -0.25,0 -0.274,0.156 -0.399,0.574 -0.398,1.731 -0.949,3.59 -2.086,3.59 -0.797,0 -0.859,-0.777 -0.859,-1.352 0,-0.664 0.082,-0.996 0.336,-2.148 0.187,-0.731 0.336,-1.371 0.566,-2.215 1.031,-4.387 1.266,-5.449 1.266,-5.625 0,-0.398 -0.297,-0.73 -0.719,-0.73 -0.883,0 -1.113,1.019 -1.156,1.371 z"
         style="fill:#000000;fill-opacity:1;fill-rule:nonzero;stroke:none"
         id="path108"
         inkscape:connector-curvature="0" /><path
         d="m 23.52,29.582 c 0,-0.488 0,-0.488 -0.379,-0.488 -0.465,0.531 -1.434,1.285 -3.411,1.285 v 0.598 c 0.442,0 1.411,0 2.461,-0.532 v 10.586 c 0,0.735 -0.062,0.977 -1.746,0.977 h -0.609 v 0.597 c 0.523,-0.043 2.398,-0.043 3.027,-0.043 0.633,0 2.508,0 3.012,0.043 v -0.597 h -0.59 c -1.703,0 -1.765,-0.242 -1.765,-0.977 z"
         style="fill:#000000;fill-opacity:1;fill-rule:nonzero;stroke:none"
         id="path110"
         inkscape:connector-curvature="0" /><path
         d="m 166.871,115.055 c 0.043,-0.133 0.086,-0.309 0.086,-0.442 0,-0.289 -0.273,-0.289 -0.336,-0.289 -0.023,0 -1.012,0.067 -1.516,0.133 -0.484,0.023 -0.906,0.09 -1.39,0.109 -0.672,0.067 -0.863,0.09 -0.863,0.622 0,0.289 0.273,0.289 0.546,0.289 1.434,0 1.434,0.265 1.434,0.574 0,0.199 -0.234,1.043 -0.34,1.574 l -0.672,2.813 c -0.273,1.171 -1.875,7.816 -1.98,8.351 -0.145,0.731 -0.145,1.215 -0.145,1.594 0,2.988 1.598,4.539 3.41,4.539 3.219,0 6.567,-4.363 6.567,-8.594 0,-2.703 -1.453,-4.605 -3.535,-4.605 -1.453,0 -2.758,1.261 -3.285,1.836 z m -1.746,19.293 c -0.883,0 -1.852,-0.711 -1.852,-2.993 0,-0.972 0.063,-1.527 0.567,-3.566 0.086,-0.398 0.527,-2.258 0.652,-2.633 0.043,-0.246 1.684,-2.859 3.578,-2.859 1.223,0 1.789,1.308 1.789,2.812 0,1.418 -0.777,4.719 -1.472,6.246 -0.696,1.575 -1.977,2.993 -3.262,2.993 z"
         style="fill:#000000;fill-opacity:1;fill-rule:nonzero;stroke:none"
         id="path112"
         inkscape:connector-curvature="0" /><path
         d="m 181.461,127.469 c 0,-0.489 0,-0.489 -0.379,-0.489 -0.465,0.532 -1.434,1.286 -3.41,1.286 v 0.597 c 0.441,0 1.41,0 2.461,-0.531 v 10.586 c 0,0.73 -0.063,0.977 -1.746,0.977 h -0.61 v 0.597 c 0.524,-0.047 2.399,-0.047 3.032,-0.047 0.629,0 2.503,0 3.007,0.047 v -0.597 h -0.589 c -1.704,0 -1.766,-0.247 -1.766,-0.977 z"
         style="fill:#000000;fill-opacity:1;fill-rule:nonzero;stroke:none"
         id="path114"
         inkscape:connector-curvature="0" /><g
         id="g116"><path
           d="m 271.551,55.855 c 0,0 0,0 15.086,-9.023 15.09,-9.012 45.261,-27.055 68.996,-26.68 23.734,0.375 41.035,19.157 40.476,38.317 -0.562,19.152 -18.972,38.672 -42.722,38.343 -23.75,-0.324 -52.844,-20.5 -67.391,-30.585 -14.543,-10.09 -14.543,-10.09 -14.543,-10.09"
           style="fill:none;stroke:#eb811b;stroke-width:3.00000008;stroke-linecap:butt;stroke-linejoin:round;stroke-miterlimit:10;stroke-dasharray:none;stroke-opacity:1"
           id="path118"
           inkscape:connector-curvature="0" /></g><g
         id="g120"><path
           d="m 271.453,56.137 c 0,0 0,0 2.219,0.234 2.207,0.231 6.644,0.695 11.918,1.559 5.277,0.871 11.394,2.132 16.488,3.3 5.086,1.165 9.149,2.231 11.176,2.77 2.027,0.531 2.027,0.531 2.027,0.531"
           style="fill:none;stroke:#eb811b;stroke-width:3.00000008;stroke-linecap:butt;stroke-linejoin:round;stroke-miterlimit:10;stroke-dasharray:none;stroke-opacity:1"
           id="path122"
           inkscape:connector-curvature="0" /></g><g
         id="g124"><path
           d="m 315.281,64.531 c 0,0 0,0 1.11,0.676 1.109,0.688 3.328,2.055 5.164,3.547 1.843,1.488 3.312,3.105 4.187,4.848 0.887,1.742 1.188,3.597 1.098,5.988 -0.102,2.394 -0.586,5.316 -1.621,7.945 -1.031,2.637 -2.61,4.961 -4.528,7.336 -1.914,2.371 -4.168,4.785 -6.722,6.742 -2.551,1.957 -5.407,3.453 -7.379,4.266 -1.981,0.812 -3.067,0.933 -4.141,0.933 -1.066,0 -2.117,-0.121 -2.644,-0.179 -0.528,-0.059 -0.528,-0.059 -0.528,-0.059"
           style="fill:none;stroke:#eb811b;stroke-width:2.25000006;stroke-linecap:butt;stroke-linejoin:round;stroke-miterlimit:10;stroke-dasharray:6.75000017,2.25000006;stroke-opacity:1;stroke-dashoffset:0"
           id="path126"
           inkscape:connector-curvature="0" /></g><g
         id="g128"><path
           d="m 299.133,107.211 c 0,0 0,0 -0.598,-0.262 -0.597,-0.265 -1.797,-0.789 -3.023,-1.82 -1.235,-1.035 -2.512,-2.586 -4.071,-4.817 -1.55,-2.242 -3.394,-5.167 -5.086,-8.265 -1.691,-3.109 -3.226,-6.387 -4.906,-10.266 -1.668,-3.867 -3.472,-8.332 -5.16,-12.711 -1.687,-4.371 -3.266,-8.652 -4.051,-10.793 -0.785,-2.14 -0.785,-2.14 -0.785,-2.14"
           style="fill:none;stroke:#eb811b;stroke-width:3.00000008;stroke-linecap:butt;stroke-linejoin:round;stroke-miterlimit:10;stroke-dasharray:none;stroke-opacity:1"
           id="path130"
           inkscape:connector-curvature="0" /></g><g
         id="g132"><path
           d="m 395.141,53.227 1.05,5.382"
           style="fill:none;stroke:#000000;stroke-width:3.68490291;stroke-linecap:butt;stroke-linejoin:round;stroke-miterlimit:10;stroke-dasharray:none;stroke-opacity:1"
           id="path134"
           inkscape:connector-curvature="0" /></g><g
         id="g136"><path
           d="m 396.191,58.609 1.575,-13.843 -8.204,1.773 z"
           style="fill:#eb811b;fill-opacity:1;fill-rule:evenodd;stroke:#eb811b;stroke-width:3.68490291;stroke-linecap:butt;stroke-linejoin:round;stroke-miterlimit:10;stroke-dasharray:none;stroke-opacity:1"
           id="path138"
           inkscape:connector-curvature="0" /></g><g
         id="g140"><path
           d="m 281.852,82.285 2.589,6.281"
           style="fill:none;stroke:#000000;stroke-width:3.68490291;stroke-linecap:butt;stroke-linejoin:round;stroke-miterlimit:10;stroke-dasharray:none;stroke-opacity:1"
           id="path142"
           inkscape:connector-curvature="0" /></g><g
         id="g144"><path
           d="m 284.441,88.566 -1.168,-13.886 -7.679,3.508 z"
           style="fill:#eb811b;fill-opacity:1;fill-rule:evenodd;stroke:#eb811b;stroke-width:3.68490291;stroke-linecap:butt;stroke-linejoin:round;stroke-miterlimit:10;stroke-dasharray:none;stroke-opacity:1"
           id="path146"
           inkscape:connector-curvature="0" /></g><path
         d="m 425.445,16.887 c 0.043,-0.133 0.086,-0.309 0.086,-0.442 0,-0.289 -0.273,-0.289 -0.336,-0.289 -0.023,0 -1.011,0.067 -1.515,0.133 -0.485,0.023 -0.907,0.09 -1.391,0.113 -0.672,0.067 -0.863,0.086 -0.863,0.618 0,0.289 0.273,0.289 0.547,0.289 1.433,0 1.433,0.265 1.433,0.574 0,0.199 -0.234,1.043 -0.34,1.574 l -0.671,2.813 c -0.274,1.175 -1.875,7.82 -1.977,8.351 -0.148,0.731 -0.148,1.219 -0.148,1.594 0,2.988 1.597,4.539 3.41,4.539 3.218,0 6.566,-4.363 6.566,-8.594 0,-2.699 -1.453,-4.605 -3.535,-4.605 -1.453,0 -2.758,1.261 -3.285,1.84 z m -1.746,19.293 c -0.883,0 -1.851,-0.711 -1.851,-2.992 0,-0.973 0.062,-1.528 0.566,-3.563 0.086,-0.402 0.527,-2.262 0.652,-2.637 0.043,-0.246 1.688,-2.859 3.582,-2.859 1.219,0 1.79,1.309 1.79,2.812 0,1.418 -0.782,4.719 -1.477,6.247 -0.691,1.574 -1.977,2.992 -3.262,2.992 z"
         style="fill:#000000;fill-opacity:1;fill-rule:nonzero;stroke:none"
         id="path148"
         inkscape:connector-curvature="0" /><path
         d="m 442.98,38.914 h -0.421 c -0.063,0.332 -0.211,1.461 -0.418,1.793 -0.129,0.176 -1.223,0.176 -1.813,0.176 h -3.578 c 0.527,-0.465 1.707,-1.77 2.211,-2.258 2.945,-2.855 4.019,-3.898 4.019,-5.914 0,-2.348 -1.769,-3.899 -4,-3.899 -2.25,0 -3.554,1.997 -3.554,3.743 0,1.043 0.84,1.043 0.902,1.043 0.402,0 0.906,-0.309 0.906,-0.953 0,-0.575 -0.359,-0.954 -0.906,-0.954 -0.168,0 -0.211,0 -0.273,0.024 0.379,-1.395 1.41,-2.324 2.675,-2.324 1.641,0 2.653,1.437 2.653,3.32 0,1.727 -0.949,3.234 -2.067,4.543 l -3.89,4.582 v 0.488 h 7.051 z"
         style="fill:#000000;fill-opacity:1;fill-rule:nonzero;stroke:none"
         id="path150"
         inkscape:connector-curvature="0" /><path
         d="m 265.836,130.875 c -0.148,0.484 -0.148,0.551 -0.527,1.105 -0.61,0.821 -1.829,2.082 -3.157,2.082 -1.136,0 -1.769,-1.085 -1.769,-2.812 0,-1.617 0.863,-4.895 1.39,-6.113 0.95,-2.059 2.254,-3.121 3.348,-3.121 1.832,0 2.188,2.414 2.188,2.632 0,0.047 -0.082,0.422 -0.106,0.489 z m 1.789,-7.508 c -0.316,-0.754 -1.074,-1.929 -2.504,-1.929 -3.156,0 -6.547,4.277 -6.547,8.617 0,2.902 1.621,4.586 3.496,4.586 1.535,0 2.84,-1.266 3.618,-2.215 0.296,1.726 1.601,2.215 2.421,2.215 0.844,0 1.516,-0.536 2.02,-1.575 0.441,-0.996 0.82,-2.789 0.82,-2.902 0,-0.152 -0.105,-0.266 -0.273,-0.266 -0.25,0 -0.274,0.157 -0.399,0.579 -0.398,1.726 -0.945,3.585 -2.082,3.585 -0.8,0 -0.863,-0.773 -0.863,-1.351 0,-0.664 0.082,-0.996 0.336,-2.149 0.187,-0.73 0.336,-1.371 0.566,-2.214 1.032,-4.383 1.266,-5.45 1.266,-5.625 0,-0.399 -0.297,-0.731 -0.719,-0.731 -0.883,0 -1.113,1.02 -1.156,1.375 z"
         style="fill:#000000;fill-opacity:1;fill-rule:nonzero;stroke:none"
         id="path152"
         inkscape:connector-curvature="0" /><path
         d="m 285.039,136.797 h -0.422 c -0.062,0.332 -0.211,1.461 -0.422,1.793 -0.125,0.18 -1.218,0.18 -1.808,0.18 h -3.578 c 0.527,-0.465 1.707,-1.774 2.211,-2.262 2.945,-2.856 4.019,-3.899 4.019,-5.914 0,-2.348 -1.769,-3.895 -4,-3.895 -2.25,0 -3.555,1.992 -3.555,3.742 0,1.039 0.84,1.039 0.903,1.039 0.402,0 0.906,-0.308 0.906,-0.953 0,-0.574 -0.359,-0.949 -0.906,-0.949 -0.168,0 -0.211,0 -0.274,0.02 0.379,-1.395 1.41,-2.325 2.676,-2.325 1.641,0 2.649,1.442 2.649,3.321 0,1.73 -0.946,3.234 -2.063,4.543 l -3.891,4.582 v 0.488 h 7.051 z"
         style="fill:#000000;fill-opacity:1;fill-rule:nonzero;stroke:none"
         id="path154"
         inkscape:connector-curvature="0" /><g
         id="g156"><path
           d="m 175.32,52.293 c -1.328,0 -2.597,0.531 -3.535,1.461 -0.937,0.945 -1.465,2.207 -1.465,3.539 0,1.328 0.528,2.602 1.465,3.535 0.938,0.942 2.207,1.465 3.535,1.465 1.325,0 2.598,-0.523 3.535,-1.465 0.938,-0.933 1.465,-2.207 1.465,-3.535 0,-1.332 -0.527,-2.594 -1.465,-3.539 -0.937,-0.93 -2.21,-1.461 -3.535,-1.461 z"
           style="fill:#eb811b;fill-opacity:1;fill-rule:nonzero;stroke:#eb811b;stroke-width:1;stroke-linecap:butt;stroke-linejoin:round;stroke-miterlimit:10;stroke-dasharray:none;stroke-opacity:1"
           id="path158"
           inkscape:connector-curvature="0" /></g><g
         id="g160"><path
           d="m 272.043,52.07 c -1.328,0 -2.598,0.532 -3.535,1.461 -0.938,0.946 -1.465,2.207 -1.465,3.539 0,1.328 0.527,2.602 1.465,3.535 0.937,0.942 2.207,1.465 3.535,1.465 1.324,0 2.598,-0.523 3.535,-1.465 0.938,-0.933 1.465,-2.207 1.465,-3.535 0,-1.332 -0.527,-2.593 -1.465,-3.539 -0.937,-0.929 -2.211,-1.461 -3.535,-1.461 z"
           style="fill:#eb811b;fill-opacity:1;fill-rule:nonzero;stroke:#eb811b;stroke-width:1;stroke-linecap:butt;stroke-linejoin:round;stroke-miterlimit:10;stroke-dasharray:none;stroke-opacity:1"
           id="path162"
           inkscape:connector-curvature="0" /></g></g></g></svg>