<?xml version="1.0" encoding="UTF-8" standalone="no"?>
<!-- Created with Inkscape (http://www.inkscape.org/) -->

<svg
   xmlns:dc="http://purl.org/dc/elements/1.1/"
   xmlns:cc="http://creativecommons.org/ns#"
   xmlns:rdf="http://www.w3.org/1999/02/22-rdf-syntax-ns#"
   xmlns:svg="http://www.w3.org/2000/svg"
   xmlns="http://www.w3.org/2000/svg"
   xmlns:sodipodi="http://sodipodi.sourceforge.net/DTD/sodipodi-0.dtd"
   xmlns:inkscape="http://www.inkscape.org/namespaces/inkscape"
   version="1.1"
   id="svg2"
   width="378.11148"
   height="192.33038"
   viewBox="0 0 378.11148 192.33038"
   sodipodi:docname="topo_surfaces.svg"
   inkscape:version="0.92.2 5c3e80d, 2017-08-06">
  <metadata
     id="metadata8">
    <rdf:RDF>
      <cc:Work
         rdf:about="">
        <dc:format>image/svg+xml</dc:format>
        <dc:type
           rdf:resource="http://purl.org/dc/dcmitype/StillImage" />
        <dc:title></dc:title>
      </cc:Work>
    </rdf:RDF>
  </metadata>
  <defs
     id="defs6" />
  <sodipodi:namedview
     pagecolor="#ffffff"
     bordercolor="#666666"
     borderopacity="1"
     objecttolerance="10"
     gridtolerance="10"
     guidetolerance="10"
     inkscape:pageopacity="0"
     inkscape:pageshadow="2"
     inkscape:window-width="1920"
     inkscape:window-height="1015"
     id="namedview4"
     showgrid="false"
     fit-margin-top="0"
     fit-margin-left="0"
     fit-margin-right="0"
     fit-margin-bottom="0"
     inkscape:zoom="1"
     inkscape:cx="313.47485"
     inkscape:cy="22.26403"
     inkscape:window-x="0"
     inkscape:window-y="0"
     inkscape:window-maximized="1"
     inkscape:current-layer="svg2" />
  <path
     style="fill:none;fill-rule:evenodd;stroke:#eb811b;stroke-width:1;stroke-linecap:butt;stroke-linejoin:miter;stroke-miterlimit:4;stroke-dasharray:1, 1;stroke-dashoffset:0;stroke-opacity:1"
     d="m 258.04087,182.386 c 0.375,-0.4375 0.875,-2 0.875,-2 v -1.5 l -0.5,-3 -0.5,-2.9375"
     id="path4765"
     inkscape:connector-curvature="0" />
  <path
     style="fill:none;fill-rule:evenodd;stroke:#eb811b;stroke-width:1;stroke-linecap:butt;stroke-linejoin:miter;stroke-miterlimit:4;stroke-dasharray:1, 1;stroke-dashoffset:0;stroke-opacity:1"
     d="m 16.978373,166.011 c 0.375,0 3.25,-1.625 3.25,-1.625 l 2.875,-0.875 3.375,-0.875 2.6875,-0.4375 3.875,-0.625 3.375,-0.375 2.75,-0.25 3.5625,-0.25 2.25,0.0625 3.8125,0.25 4.25,0.375 3.1875,0.75 3.375,0.75 2.8125,0.6875 3.0625,1.0625 2.5,1.0625"
     id="path4757"
     inkscape:connector-curvature="0" />
  <path
     style="fill:none;fill-rule:evenodd;stroke:#eb811b;stroke-width:1;stroke-linecap:butt;stroke-linejoin:miter;stroke-miterlimit:4;stroke-dasharray:1, 1;stroke-dashoffset:0;stroke-opacity:1"
     d="m 2.2908731,22.886 5.875,-3.125 4.4999999,-0.9375 3.9375,-0.1875 6.4375,-0.0625 6.0625,0.625"
     id="path4759"
     inkscape:connector-curvature="0" />
  <path
     style="fill:none;fill-rule:evenodd;stroke:#eb811b;stroke-width:1;stroke-linecap:butt;stroke-linejoin:miter;stroke-miterlimit:4;stroke-dasharray:1, 1;stroke-dashoffset:0;stroke-opacity:1"
     d="m 64.790873,21.1985 h 5.4375 l 4.8125,1.625 4.0625,2.8125 2.91393,4.29413"
     id="path4761"
     inkscape:connector-curvature="0" />
  <path
     style="fill:none;fill-rule:evenodd;stroke:#eb811b;stroke-width:1;stroke-linecap:butt;stroke-linejoin:miter;stroke-miterlimit:4;stroke-dasharray:1, 1;stroke-dashoffset:0;stroke-opacity:1"
     d="m 264.66587,56.9485 6.25,-2.5 8.75,-1.5 10.75,-1 h 8.25 l 7.5,0.75 7.5,1.75 7.75,2.25 6.5,2.75 4.75,2.5 3.75,2.5 5.25,3.5 4,3 2.5,2.5 4.5,4.25"
     id="path4763"
     inkscape:connector-curvature="0" />
  <path
     style="fill:none;fill-rule:evenodd;stroke:#eb811b;stroke-width:1;stroke-linecap:butt;stroke-linejoin:miter;stroke-miterlimit:4;stroke-dasharray:1, 1;stroke-dashoffset:0;stroke-opacity:1"
     d="m 345.41587,174.1985 -0.8125,1.625 -0.0528,5.42237"
     id="path4767"
     inkscape:connector-curvature="0" />
  <path
     style="fill:none;fill-rule:evenodd;stroke:#eb811b;stroke-width:1;stroke-linecap:butt;stroke-linejoin:miter;stroke-miterlimit:4;stroke-dasharray:1, 1;stroke-dashoffset:0;stroke-opacity:1"
     d="m 163.85337,167.0735 1.5625,-2.8125 0.625,-2.75 0.375,-3.25 -0.25,-3.9375 -0.0625,-2.5 -0.5625,-4.1875 -0.875,-2.1875"
     id="path4769"
     inkscape:connector-curvature="0" />
  <path
     style="fill:none;fill-rule:evenodd;stroke:#eb811b;stroke-width:1;stroke-linecap:butt;stroke-linejoin:miter;stroke-miterlimit:4;stroke-dasharray:1, 1;stroke-dashoffset:0;stroke-opacity:1"
     d="m 154.22837,185.1985 2.25,-2.8125 0.75,-1.625 0.0625,-2.8125 -0.0625,-2.3125"
     id="path4771"
     inkscape:connector-curvature="0" />
  <path
     style="fill:none;fill-rule:evenodd;stroke:#eb811b;stroke-width:1;stroke-linecap:butt;stroke-linejoin:miter;stroke-miterlimit:4;stroke-dasharray:1, 1;stroke-dashoffset:0;stroke-opacity:1"
     d="m 4.4158731,74.0735 5.1875,-2.4375 5.4999999,-1.25 5.375,-1.1875 5.4375,-0.4375 4.0625,-0.375 5.25,0.125 3.6875,-0.0625 5.875,0.5625 5.3125,0.8125 5.0625,1 3.5,0.75 4,1 2.8125,0.8125"
     id="path4773"
     inkscape:connector-curvature="0" />
  <path
     style="fill:#eb811b;fill-opacity:1"
     d="m 33.194357,190.63741 c -17.669079,-6.48207 -22.953613,-29.03754 -10.141815,-43.28734 12.821738,-14.26086 35.303261,-11.17169 43.874611,6.02877 10.74412,21.56063 -11.014175,45.59311 -33.732796,37.25857 z m 19.876674,-2.83098 c 5.687265,-2.6483 11.316572,-8.61847 13.301062,-14.10647 1.74743,-4.83244 1.72099,-4.8415 -7.351331,-2.5212 -11.915708,3.04753 -28.570113,2.38649 -38.755339,-1.53827 -2.580564,-0.99439 -2.239863,1.86894 0.911285,7.65864 6.266859,11.51428 20.009296,16.04161 31.894323,10.5073 z m 3.216729,-17.2143 c 10.351473,-2.13816 11.229713,-2.70162 11.217893,-7.19718 -0.0437,-16.61223 -20.539734,-28.09708 -36.034974,-20.19199 -9.607218,4.90123 -17.628191,21.94111 -11.797055,25.06184 6.964095,3.72707 24.455041,4.83886 36.614136,2.32733 z m 93.47833,16.10274 c -35.65097,-10.00668 -27.07222,-40.70869 11.81751,-42.29301 39.44657,-1.607 55.10651,28.76935 21.14486,41.01571 -7.53374,2.71662 -25.37182,3.40785 -32.96237,1.2773 z m 27.53081,-2.02526 c 32.50858,-7.66439 27.19801,-35.29678 -7.33441,-38.16296 -7.05294,-0.58539 -7.05294,-0.58539 -8.25,3.41007 -2.32251,7.75184 -1.61575,15.16452 1.55293,16.28756 4.50626,1.5971 5.67433,2.5397 6.28334,5.07049 0.57883,2.40536 0.57883,2.40536 3.84521,-0.84018 2.27635,-2.26183 3.16864,-2.71647 2.94392,-1.5 -0.50387,2.72747 -8.95258,6.3815 -15.45123,6.68258 -6.33241,0.29337 -9.37124,2.64147 -9.37124,7.24113 0,2.00153 0.37049,2.33902 2,1.82183 1.14731,-0.36414 2,-0.1797 2,0.43261 0,1.59145 14.39389,1.29861 21.78148,-0.44313 z m -27.36631,-3.889 c 0.35077,-1.86973 1.29472,-3.94474 2.09767,-4.61113 1.22421,-1.01601 0.77596,-1.55694 -2.77646,-3.35049 -2.33001,-1.17637 -4.38149,-2.92435 -4.55885,-3.8844 -0.22472,-1.21647 0.66757,-0.76183 2.94392,1.5 3.26638,3.24554 3.26638,3.24554 3.85,0.74554 0.36411,-1.55965 1.81585,-3.0467 3.85961,-3.95347 3.03412,-1.34615 3.23128,-1.71805 2.67053,-5.03714 -0.55762,-3.30052 0.43962,-10.08666 2.12935,-14.49001 1.52129,-3.96444 -16.18988,0.61861 -23.27516,6.02283 -11.59507,8.84399 -9.47544,20.29846 5.14422,27.79933 6.5315,3.3511 7.15849,3.2924 7.91517,-0.74106 z m 16.57647,-8.57415 c 2.59851,-1.64283 -0.60178,-3.52633 -5.99164,-3.52633 -5.38986,0 -8.59015,1.8835 -5.99164,3.52633 1.92987,1.2201 10.05341,1.2201 11.98328,0 z m 83.39556,13.01548 c -29.93468,-4.62495 -32.98347,-26.32315 -4.58634,-32.64092 11.94284,-2.65702 23.25825,-1.57237 37.89028,3.63204 16.2989,5.79728 18.91982,5.93995 30.43509,1.65676 29.23513,-10.87424 57.34596,-7.77051 63.52316,7.01362 7.05802,16.8922 -26.52866,25.95192 -61.52234,16.59513 -13.64032,-3.64722 -16.97584,-3.84138 -24.33057,-1.41626 -13.56007,4.47124 -31.44288,6.69945 -41.40928,5.15963 z m 4.1657,-7.54279 c 0.0471,-4.89559 -0.17238,-5.49943 -2,-5.50276 -2.60968,-0.005 -8.5529,-3.58746 -8.5529,-5.15588 0,-0.65395 1.0415,-0.21057 2.31445,0.98531 2.70928,2.54523 3.68555,2.73317 3.68555,0.70949 0,-2.10643 3.23321,-3.53518 8,-3.53518 4.76679,0 8,1.42875 8,3.53518 0,2.06755 1.6467,1.81812 4.08333,-0.61851 1.14584,-1.14584 2.30059,-1.86608 2.56612,-1.60055 1.82828,1.82828 -8.69476,6.68388 -14.48528,6.68388 -2.98559,0 -4.33817,5.66497 -2.14886,9 0.87528,1.33333 1.0941,1.33333 1.96938,0 0.65846,-1.00305 0.98976,-1.08588 1,-0.25 0.0338,2.76093 19.26478,0.4648 31.57253,-3.76969 3.16574,-1.08917 6.79631,-1.98031 8.06795,-1.98031 1.76507,0 2.16937,-0.41402 1.70891,-1.75 -0.5035,-1.46087 -0.35324,-1.42891 0.90944,0.19347 1.89647,2.43671 3.36358,-2.40285 2.25648,-7.44347 -0.92425,-4.20808 -2.20997,-3.73284 -3.38173,1.25 -0.99943,4.25 -0.99943,4.25 -0.80885,-0.0758 0.21502,-4.88055 1.39925,-4.12304 -15.97849,-10.22091 -21.24877,-7.45621 -42.24848,-5.96904 -51.89247,3.67495 -6.85313,6.85313 -2.19322,15.15905 10.81741,19.28116 10.94046,3.46621 12.23433,3.10738 12.29703,-3.41035 z m 90.48228,3.56672 c -0.56935,-1.06384 -0.99847,-2.52634 -0.95361,-3.25 0.0449,-0.72366 0.72116,0.14676 1.50287,1.93426 0.78171,1.7875 2.09501,3.25 2.91843,3.25 2.31117,0 1.93905,-6.2901 -0.50287,-8.5 -1.52945,-1.38413 -2.0036,-1.47942 -2.01531,-0.40499 -0.0112,1.02393 -0.22143,1.08077 -0.77528,0.20959 -0.41797,-0.65747 -2.99132,-1.69546 -5.71853,-2.30664 -4.73388,-1.06089 -8.49088,-3.34094 -8.49088,-5.15295 0,-0.46475 0.9,0.055 2,1.15499 2.3606,2.3606 4,2.57995 4,0.53518 0,-2.10643 3.23321,-3.53518 8,-3.53518 4.76679,0 8,1.42875 8,3.53518 0,2.04477 1.6394,1.82542 4,-0.53518 1.1,-1.1 2,-1.61974 2,-1.15499 0,1.6015 -3.639,4.13279 -6.87043,4.77908 -2.50394,0.50078 -3.07653,1.0142 -2.52254,2.26187 0.39416,0.88772 0.91609,3.30154 1.15985,5.36404 0.50376,4.26248 1.10369,4.42693 8.73312,2.39391 20.20111,-5.38302 22.31337,-18.72884 4.04342,-25.54737 -12.60996,-4.70616 -28.72784,-3.66972 -46.82508,3.01104 -4.52009,1.66863 -9.25694,3.2845 -10.52634,3.59081 -1.49915,0.36176 -2.11245,1.06654 -1.75,2.01106 0.3069,0.79977 0.558,3.63116 0.558,6.29197 0,4.83785 0,4.83785 5.03501,6.51021 15.4042,5.11645 37.01052,7.31048 35.00017,3.55411 z m -81.03518,-11.10006 c 2.7036,-1.80905 -1.74354,-4.2038 -6.7994,-3.66144 -4.93776,0.5297 -5.67768,1.01012 -4.85552,3.15263 0.6876,1.79186 9.18314,2.16275 11.65492,0.50881 z m 86.94212,-0.39594 c 2.39718,-2.88843 -4.91865,-4.66976 -10.48571,-2.55317 -2.21818,0.84335 -2.464,1.26935 -1.44266,2.5 1.62829,1.96196 10.31209,2.00067 11.92837,0.0532 z M 160.59826,130.02334 c -3.71489,-6.47812 -3.74599,-6.84321 -0.58284,-6.84321 2.42857,0 2.5,-0.2 2.5,-7 0,-4 0.42857,-7 1,-7 0.57143,0 1,3 1,7 0,6.66667 0.11111,7 2.33333,7 1.28334,0 2.59817,0.26484 2.92186,0.58852 0.45753,0.45753 -4.24546,9.60267 -5.78784,11.25469 -0.17624,0.18876 -1.69926,-2.06124 -3.38451,-5 z m 145.01262,-0.32806 c -3.72823,-6.60606 -3.71992,-6.51515 -0.59546,-6.51515 2.40791,0 2.5,-0.23727 2.5,-6.44098 0,-3.54254 0.45,-6.7191 1,-7.05902 0.63059,-0.38973 1,1.98962 1,6.44098 0,7.05902 0,7.05902 3,7.05902 1.65,0 3,0.23182 3,0.51515 0,0.69274 -6.10793,11.48485 -6.5,11.48485 -0.17,0 -1.70204,-2.46818 -3.40454,-5.48485 z m -268.686528,-1.7549 c -1.599911,-2.88186 -3.058929,-5.58186 -3.242262,-6 -0.183334,-0.41814 1.054166,-0.76025 2.75,-0.76025 3.083333,0 3.083333,0 3.083333,-7.05902 0,-4.45136 0.369407,-6.83071 1,-6.44098 0.55,0.33992 1,3.51648 1,7.05902 0,6.20371 0.09209,6.44098 2.5,6.44098 3.149741,0 3.137418,0.14246 -0.573391,6.62827 -3.703026,6.47222 -3.005637,6.4581 -6.51768,0.13198 z M 26.015423,100.84733 C 9.5290931,95.36126 3.8379881,85.88923 2.4824991,61.68013 c -0.461925,-8.25 -1.3266192,-19.275 -1.9215422,-24.5 -2.522795,-22.1568 3.6321012,-37.33682939 15.0745681,-37.17890939 8.18028,0.1129 13.374347,5.34965949 14.938333,15.06111939 3.535505,21.95348 14.645503,23.58895 33.205625,4.88811 11.85048,-11.9403399 16.55466,-13.5024199 23.17016,-7.69393 8.23736,7.23249 5.38672,15.41427 -8.50053,24.39789 -12.45151,8.05483 -14.92351,14.28434 -11.51804,29.02572 4.67835,20.25134 1.56021,31.04018 -9.962574,34.47077 -6.139095,1.82774 -26.197135,2.27904 -30.953076,0.69643 z m 32.106241,-3.61117 c 7.436209,-3.28939 13.169359,-20.67868 6.143759,-18.63469 -14.354772,4.17628 -34.924024,4.49229 -50,0.76815 C 5.9882391,77.32495 5.7616511,77.44033 7.9182531,82.60181 14.226788,97.70026 40.053216,105.22869 58.121664,97.23616 Z M 59.414142,78.7849 c 5.866201,-1.63229 8.555101,-3.50768 6.238131,-4.35082 -0.84238,-0.30654 -0.97252,-0.73748 -0.34064,-1.128 0.67524,-0.41733 0.38492,-3.68748 -0.85487,-9.62895 -2.70618,-12.96885 -0.51011,-19.19088 9.35213,-26.497 4.72451,-3.5 4.72451,-3.5 0.46552,-5.30797 -2.34245,-0.99439 -5.70244,-3.2017 -7.46666,-4.90515 -3.20768,-3.09717 -3.20768,-3.09717 -7.500005,0.41439 -12.744326,10.42616 -23.361382,9.82902 -27.892255,-1.56875 -0.684887,-1.72289 -1.319534,-3.24697 -1.410329,-3.38686 -0.09079,-0.13988 -1.570989,0.44702 -3.289322,1.30424 -4.346806,2.16847 -12.694313,3.34505 -19.0947739,2.6914 -5.394355,-0.55091 -5.394355,-0.55091 -4.704663,9.3539 0.379331,5.44764 1.074954,16.6548 1.54583,24.9048 1.01331,17.75378 0.192833,15.18844 5.303188,16.58114 14.8274839,4.04085 38.0418829,4.75326 49.6487189,1.52363 z M 82.017303,29.93013 c -0.46887,-1.6669 -0.37651,-1.87793 0.3564,-0.8143 2.20481,3.1997 7.70758,-5.08285 6.63163,-9.98166 -2.15114,-9.7940699 -13.10476,-10.0115199 -20.96736,-0.41626 -3.56612,4.35198 -3.56612,4.35198 -0.20043,7.71767 5.3448,5.3448 15.39705,7.82214 14.17976,3.49455 z M 26.105764,22.93092 C 31.306447,20.17599 28.811302,8.1605801 22.201601,4.1303501 11.316135,-2.5069894 0.0630729,10.03376 3.4331921,25.04643 3.6940841,26.20861 23.386989,24.37112 26.105764,22.93092 Z M 4.5154231,21.18013 c 0,-0.55 0.476558,-1 1.059017,-1 0.582459,0 0.780902,0.45 0.440983,1 -0.339919,0.55 -0.816476,1 -1.059017,1 -0.242541,0 -0.440983,-0.45 -0.440983,-1 z M 139.81624,98.222 c -3.97774,-2.42538 -5.65131,-7.71345 -4.28572,-13.54187 1.43232,-6.11326 1.46852,-6.0357 -6.41991,-13.75446 -11.58669,-11.33748 -11.63869,-30.22551 -0.0952,-34.57735 4.42202,-1.66708 36.35699,-2.32121 44.25,-0.90637 3.26135,0.5846 4.25,0.45068 4.25,-0.57569 0,-7.11726 28.30744,-12.49571 33.58063,-6.38037 4.63139,5.37105 1.92971,20.83535 -6.58783,37.7085 -2.7152,5.37878 -2.94658,6.49112 -2.03385,9.7775 5.15645,18.5663 -5.93266,27.82197 -26.18331,21.85422 -5.4942,-1.61912 -6.03452,-1.6057 -13.43834,0.33354 -10.03791,2.62918 -18.78791,2.65286 -23.03648,0.0624 z m 22.62239,-2.14177 c 7.89274,-1.99591 8.58636,-2.02067 14.00599,-0.5 19.70693,5.52948 27.91261,-1.05073 24.00893,-19.25299 -1.00682,-4.69466 -0.87743,-5.31757 2.49606,-12.01644 7.7865,-15.46192 10.73161,-30.08001 6.91082,-34.30193 -3.28743,-3.63258 -24.16376,-1.45444 -28.60244,2.98424 -2.00283,2.00283 -1.92613,2.99778 0.50107,6.49967 4.60425,6.64289 -29.96389,11.02533 -49.66846,6.2968 -7.92783,-1.90245 -8.08519,-1.80757 -9.08741,5.4795 -1.06712,7.75888 0.63324,11.54769 8.57363,19.10408 7.10288,6.75938 7.10288,6.75938 6.40666,13.26058 -1.53502,14.33381 4.6147,17.46371 24.45515,12.44649 z m 25.34984,-33.6035 c -6.51954,-9.94043 -1.38538,-26.90001 8.08354,-26.70218 9.75614,0.20383 11.89627,5.02703 6.73743,15.18409 -6.82577,13.43902 -11.28714,16.90617 -14.82097,11.51809 z m 5.98282,-1.0466 c 2.73529,-3.05699 9.71544,-16.66195 9.73006,-18.96482 0.0311,-4.89741 -10.38715,-6.13317 -13.91335,-1.65032 -5.05041,6.42055 -0.99551,26.403 4.18329,20.61514 z M 165.42174,45.1985 c 14.80166,-1.7017 18.17004,-3.72665 11.34368,-6.8194 -8.86603,-4.01684 -51.25,-1.80671 -51.25,2.67245 0,3.588 23.51406,6.03152 39.90632,4.14695 z m 139.72674,51.76859 c -43.92102,-3.98088 -62.52876,-47.11468 -23.42935,-54.31054 3.31554,-0.6102 3.86872,-1.16872 5.27806,-5.32903 6.54502,-19.32068 24.83315,-24.26013 49.01823,-13.23935 14.89318,6.78659 20.64904,17.91517 16.03293,30.99862 -1.37191,3.88842 -1.32701,4.42682 0.69231,8.30097 10.2179,19.60347 -13.9162,36.63163 -47.59218,33.57933 z m 28.41577,-4.6287 c 6.07726,-2.35631 15.47749,-7.96527 14.68216,-8.76061 -0.27497,-0.27496 -5.9323,-0.0282 -12.57185,0.54828 -28.75618,2.49692 -50.95819,-3.64177 -65.31673,-18.0596 -6.65758,-6.68508 -6.65758,-6.68508 -7.29253,-3.30052 -4.02517,21.456 41.82639,40.68952 70.49895,29.57245 z m 9.84564,-10.12284 c 13.54419,-1.95789 12.853,-16.6497 -1.30732,-27.78821 -2.26401,-1.78087 -2.4766,-2.40778 -1.59914,-4.71567 5.63803,-14.82915 -7.18428,-28.85567 -26.48801,-28.97562 -13.10885,-0.0815 -20.33881,4.81148 -24.67264,16.6974 -1.19105,3.26657 -2.65195,6.09009 -3.24645,6.27448 -0.5945,0.1844 -3.76961,1.08307 -7.0558,1.99705 -8.80555,2.44905 -15.32545,9.02677 -13.1388,13.2553 9.2342,17.85697 43.57514,28.16051 77.50816,23.25527 z m -11.89447,-34.051 c -3.33497,-2.18985 -10.14837,-3.37564 -22.5,-3.91585 -14.84732,-0.64937 -15.62046,-1.51022 -9.78836,-10.89877 10.62111,-17.09792 39.76636,-7.51859 36.63847,12.04217 -0.61692,3.85804 -1.6724,4.53072 -4.35011,2.77245 z m 2,-6.33654 c 0,-12.55479 -10.81696,-16.37135 -19.80721,-6.9886 -5.4973,5.7373 -5.07264,6.68316 3.38852,7.54745 3.80528,0.3887 8.71869,1.36949 10.91869,2.17954 5.58549,2.05658 5.5,2.09915 5.5,-2.73839 z m -31.97238,-5.39788 c 3.14846,-6.16417 3.46551,-7.19786 1.45692,-4.75 -2.40572,2.93182 -5.65809,9.5 -4.70413,9.5 0.45158,0 1.91283,-2.1375 3.24721,-4.75 z m 7.97424,0.0345 c 1.92398,-2.59354 4.9748,-5.70823 6.7796,-6.92154 3.79525,-2.55143 2.76184,-3.87505 -2.28606,-2.92806 -5.65239,1.0604 -15.16901,14.56512 -10.26387,14.56512 1.54712,0 3.38846,-1.50475 5.77033,-4.71552 z m 40.94556,16.96552 c 2.8086,-10.1133 -1.35169,-20.24477 -10.2138,-24.87343 -2.67274,-1.39596 -2.62991,-1.24908 1.26533,4.33928 5.12126,7.34729 6.43948,11.94221 4.9805,17.36048 -0.82298,3.05629 -0.80198,4.43258 0.0839,5.5 1.863,2.24477 2.76457,1.70479 3.88407,-2.32633 z m -5.94742,-6.91667 c 0,-6.82403 -0.49381,-6.67696 -1.39897,0.41667 -0.4315,3.3816 -0.30177,5.25 0.36453,5.25 0.59089,0 1.03444,-2.42977 1.03444,-5.66667 z"
     id="path4751"
     inkscape:connector-curvature="0" />
</svg>
