<?xml version="1.0" encoding="UTF-8" standalone="no"?>
<!-- Created with Inkscape (http://www.inkscape.org/) -->

<svg
   xmlns:osb="http://www.openswatchbook.org/uri/2009/osb"
   xmlns:dc="http://purl.org/dc/elements/1.1/"
   xmlns:cc="http://creativecommons.org/ns#"
   xmlns:rdf="http://www.w3.org/1999/02/22-rdf-syntax-ns#"
   xmlns:svg="http://www.w3.org/2000/svg"
   xmlns="http://www.w3.org/2000/svg"
   xmlns:xlink="http://www.w3.org/1999/xlink"
   xmlns:sodipodi="http://sodipodi.sourceforge.net/DTD/sodipodi-0.dtd"
   xmlns:inkscape="http://www.inkscape.org/namespaces/inkscape"
   width="210mm"
   height="297mm"
   viewBox="0 0 210 297"
   version="1.1"
   id="svg5088"
   inkscape:version="0.92.2 5c3e80d, 2017-08-06"
   sodipodi:docname="unfeasible_domains.svg">
  <defs
     id="defs5082">
    <pattern
       inkscape:collect="always"
       xlink:href="#pattern11084"
       id="pattern11586"
       patternTransform="matrix(0.26458333,0,0,0.26458333,210.61808,-12.598812)" />
    <pattern
       inkscape:collect="always"
       xlink:href="#pattern11084"
       id="pattern11584"
       patternTransform="matrix(0.26458333,0,0,0.26458333,210.61808,-12.598812)" />
    <pattern
       inkscape:collect="always"
       xlink:href="#pattern11158"
       id="pattern11179"
       patternTransform="matrix(0.26458333,0,0,0.26458333,54.967477,67.372089)" />
    <linearGradient
       id="linearGradient11068"
       osb:paint="solid">
      <stop
         style="stop-color:#ffffff;stop-opacity:1;"
         offset="0"
         id="stop11066" />
    </linearGradient>
    <pattern
       patternUnits="userSpaceOnUse"
       width="34.469565"
       height="69.011141"
       patternTransform="matrix(0.26458333,0,0,0.26458333,137.6535,45.398675)"
       id="pattern11084">
      <path
         inkscape:connector-curvature="0"
         id="path11082"
         d="M 0.44906904,68.791285 34.020496,0.21985671"
         style="fill:none;fill-rule:evenodd;stroke:#000000;stroke-width:0.99999994;stroke-linecap:butt;stroke-linejoin:miter;stroke-miterlimit:4;stroke-dasharray:0.99999995, 0.99999995;stroke-dashoffset:0;stroke-opacity:1" />
    </pattern>
    <meshgradient
       inkscape:collect="always"
       id="meshgradient11103"
       gradientUnits="userSpaceOnUse"
       x="109.05495"
       y="131.05585"
       gradientTransform="translate(16.492925,-132.13045)">
      <meshrow
         id="meshrow11105">
        <meshpatch
           id="meshpatch11107">
          <stop
             path="c 29.3874,0  58.7747,0  88.1621,0"
             style="stop-color:#000000;stop-opacity:1"
             id="stop11109" />
          <stop
             path="c 0,21.8986  0,43.7972  0,65.6958"
             style="stop-color:#ffffff;stop-opacity:1"
             id="stop11111" />
          <stop
             path="c -29.3874,0  -58.7747,0  -88.1621,0"
             style="stop-color:#000000;stop-opacity:1"
             id="stop11113" />
          <stop
             path="c 0,-21.8986  0,-43.7972  0,-65.6958"
             style="stop-color:#ffffff;stop-opacity:1"
             id="stop11115" />
        </meshpatch>
      </meshrow>
    </meshgradient>
    <pattern
       patternUnits="userSpaceOnUse"
       width="200.82123"
       height="288.42771"
       patternTransform="matrix(0.26458333,0,0,0.26458333,46.949391,79.399218)"
       id="pattern11158">
      <path
         inkscape:connector-curvature="0"
         id="path11156"
         d="M 0.41061864,288.14242 200.41062,0.28529336"
         style="fill:none;fill-rule:evenodd;stroke:#000000;stroke-width:0.99999994;stroke-linecap:butt;stroke-linejoin:miter;stroke-miterlimit:4;stroke-dasharray:0.99999995, 0.99999995;stroke-dashoffset:0;stroke-opacity:1" />
    </pattern>
    <clipPath
       clipPathUnits="userSpaceOnUse"
       id="clipPath94">
      <path
         d="M 57.6,38.016 H 414.72 V 304.128 H 57.6 Z"
         id="path92"
         inkscape:connector-curvature="0" />
    </clipPath>
    <pattern
       patternUnits="userSpaceOnUse"
       width="34.469565"
       height="69.011141"
       patternTransform="matrix(0.26458333,0,0,0.26458333,137.6535,45.398675)"
       id="pattern11084-7">
      <path
         inkscape:connector-curvature="0"
         id="path11082-6"
         d="M 0.44906904,68.791285 34.020496,0.21985671"
         style="fill:none;fill-rule:evenodd;stroke:#000000;stroke-width:0.99999994;stroke-linecap:butt;stroke-linejoin:miter;stroke-miterlimit:4;stroke-dasharray:0.99999995, 0.99999995;stroke-dashoffset:0;stroke-opacity:1" />
    </pattern>
    <pattern
       patternUnits="userSpaceOnUse"
       width="34.469565"
       height="69.011141"
       patternTransform="matrix(0.26458333,0,0,0.26458333,137.6535,45.398675)"
       id="pattern11580">
      <path
         inkscape:connector-curvature="0"
         id="path11578"
         d="M 0.44906904,68.791285 34.020496,0.21985671"
         style="fill:none;fill-rule:evenodd;stroke:#000000;stroke-width:0.99999994;stroke-linecap:butt;stroke-linejoin:miter;stroke-miterlimit:4;stroke-dasharray:0.99999995, 0.99999995;stroke-dashoffset:0;stroke-opacity:1" />
    </pattern>
  </defs>
  <sodipodi:namedview
     id="base"
     pagecolor="#ffffff"
     bordercolor="#666666"
     borderopacity="1.0"
     inkscape:pageopacity="0.0"
     inkscape:pageshadow="2"
     inkscape:zoom="0.98994949"
     inkscape:cx="227.4293"
     inkscape:cy="266.03203"
     inkscape:document-units="mm"
     inkscape:current-layer="layer1"
     showgrid="false"
     inkscape:window-width="1920"
     inkscape:window-height="1015"
     inkscape:window-x="0"
     inkscape:window-y="0"
     inkscape:window-maximized="1" />
  <metadata
     id="metadata5085">
    <rdf:RDF>
      <cc:Work
         rdf:about="">
        <dc:format>image/svg+xml</dc:format>
        <dc:type
           rdf:resource="http://purl.org/dc/dcmitype/StillImage" />
        <dc:title></dc:title>
      </cc:Work>
    </rdf:RDF>
  </metadata>
  <g
     inkscape:label="Layer 1"
     inkscape:groupmode="layer"
     id="layer1">
    <path
       id="path5051"
       style="fill:url(#meshgradient11103);fill-opacity:1;fill-rule:evenodd;stroke:#000000;stroke-width:0.26458332px;stroke-linecap:butt;stroke-linejoin:miter;stroke-opacity:1"
       d="m 163.3704,64.621132 50.33958,9e-5 M 125.5482,36.437504 v -37.51113 m 16.9764,8.12033 3.93795,-1.50499 4.39035,-1.27221 4.20674,-1.0211 m 0,0 1.34179,-0.23716 2.5711,-0.3508 2.5711,-0.24204 2.57111,-0.13134 2.57109,-0.0195 2.57111,0.0929 2.5711,0.20552 2.5711,0.31797 2.56369,0.4288 0.007,10e-4 2.57111,0.58317 2.5711,0.70145 1.97403,0.62994 0.59707,0.204 2.5711,1.00927 1.59052,0.70262 0.98059,0.46553 2.5711,1.35741 0.15948,0.0929 2.41162,1.51669 0.58131,0.3992 1.98979,1.48272 0.53573,0.43317 2.03537,1.79704 0.12473,0.11884 1.82163,1.91589 0.62475,0.73069 0.9429,1.18519 1.35443,1.91589 0.27377,0.44492 0.84537,1.47096 0.94134,1.91589 0.78261,1.91589 0.002,0.005 0.57545,1.91035 0.42671,1.91589 0.27582,1.91588 0.12472,1.91589 -0.0262,1.91588 -0.17627,1.91589 -0.32481,1.91589 -0.47077,1.91588 -0.40468,1.27134 -0.22646,0.64454 -0.81655,1.91589 -0.9576,1.91589 -0.5705,1.01622 -0.56791,0.89966 -1.31954,1.91589 -0.68365,0.94201 -0.81349,0.97387 -1.62585,1.915888 -0.13176,0.16682 -1.65078,1.74906 -0.92032,1.1888 -0.70539,0.72709 -0.8287,1.91588 1.53409,1.38135 0.53651,0.53454 2.03459,0.18595 2.5711,0.26755 2.5711,0.29674 2.57111,0.32416 2.5711,0.35003 2.5711,0.37451 0.74433,0.11694 m -88.16191,-65.694788 0.15694,0.55466001 0.5026,1.91587999 0.46974,1.91589 0.43502,1.91588 0.39822,1.91589 0.35905,1.91588 0.24954,1.5161 0.71735,0.39979 1.85375,1.14314 2.5711,-0.61751 0.97575,-0.52563 1.59536,-0.68579 2.34723,-1.2301 0.22387,-0.0982 2.5711,-1.21152 1.30693,-0.60618 0.24285,-0.0979 m 4.2493,38.35299 10.80571,7.42983 m -10.80571,-7.42983 -0.65688,-0.52916 -1.60519,-1.32414 -0.96591,-0.83866 -1.22869,-1.07723 -1.34241,-1.24743 -0.72671,-0.66845 -1.84439,-1.80941 -0.1132,-0.10647 -1.87558,-1.91589 -0.58232,-0.64852 -1.27241,-1.26736 -1.2987,-1.41363 -0.61071,-0.50226 -1.96039,-1.76236 -0.68977,-0.15353 -1.88133,-0.45108 -0.099,0.45108 -0.5424,1.91589 -0.70635,1.91589 -0.90583,1.91588 -0.3175,0.55465 m 37.8222,28.183628 0.74433,-0.23658 2.5711,-0.675 2.5711,-0.52634 2.57111,-0.40417 0.60534,-0.0738 -0.60534,-1.4019 -0.20604,-0.51399 -2.36507,-1.46081 -0.67403,-0.45508 -1.89707,-0.96774 -1.7008,-0.94814 -0.8703,-0.43393 -2.5711,-1.39761 -0.1429,-0.0844 -2.42821,-1.37437 -0.89705,-0.541508 -0.49586,-0.2963"
       inkscape:connector-curvature="0" />
    <path
       style="opacity:1;fill:url(#pattern11586);fill-opacity:1;fill-rule:evenodd;stroke:#000000;stroke-width:0.2;stroke-linecap:butt;stroke-linejoin:miter;stroke-miterlimit:4;stroke-dasharray:none;stroke-opacity:1"
       d="m 94.798471,108.58179 5e-6,37.51112 1.223333,-2.47053 0.598263,-1.58398 0.10809,-0.33191 0.39977,-1.38581 0.241646,-0.98116 2.571099,0.60461 2.571103,2.26462 2.5537,2.68219 0.57331,0.66655 1.92936,1.91265 2.16321,2.12145 3.35757,3.04019 2.93524,2.42332 10.80571,7.42984 3.24737,1.89836 3.25735,1.78736 0.89368,0.44267 1.01897,0.56795 1.40316,0.76839 1.18277,0.57921 3.0391,1.91589 0.81138,1.91589 -3.00367,0.43327 -2.68105,0.5596 -3.37827,0.92302 50.33951,9e-5 -6.06741,-0.87212 -4.57115,-0.57877 -4.99567,-0.46505 -2.0706,-1.91589 0.8287,-1.91588 0.70539,-0.72709 0.92032,-1.1888 1.65078,-1.74906 2.69474,-3.2202 1.9318,-2.76771 0.55515,-0.90951 0.57878,-0.98038 0.47246,-0.96856 0.43704,-0.8977 0.36617,-0.85045 0.55515,-1.34654 0.43703,-1.38198 0.30711,-1.1103 0.25333,-1.06058 0.19551,-1.08916 0.1293,-0.82673 0.17627,-1.91589 0.0262,-1.91588 -0.12472,-1.91589 -0.27582,-1.91588 -0.42671,-1.91589 -0.59119,-1.94893 -0.76887,-1.88281 -0.94134,-1.91588 -1.11914,-1.91589 -1.32839,-1.86857 -1.26386,-1.59459 -1.42922,-1.52371 -0.75595,-0.81502 -2.38598,-2.07886 -2.52706,-1.88798 -2.78963,-1.78737 -2.66434,-1.41151 -2.93997,-1.31964 -2.85644,-1.08579 -1.43658,-0.45102 -2.53906,-0.70158 -2.90656,-0.68488 -1.94605,-0.34243 -2.4806,-0.3508 -0.92709,-0.0919 -2.43523,-0.19089 -2.49819,-0.1063 -2.73442,0.0177 -2.56906,0.12993 -2.59859,0.23623 -2.56315,0.37798 -1.34353,0.22353 -4.14893,0.99308 -4.44816,1.30023 -3.93794,1.50499 -4.34469,2.01375 -2.34723,1.2301 -1.59535,0.68579 -0.97576,0.52563 -2.571098,0.61751 -2.571099,-1.54293 -0.288848,-1.82298 -0.543341,-2.76395 -0.484282,-2.1143 -0.401598,-1.79539 -0.853038,-3.15356"
       id="path9574"
       inkscape:connector-curvature="0" />
    <path
       id="path5051-3"
       style="fill:url(#pattern11084);fill-opacity:1;fill-rule:evenodd;stroke:#000000;stroke-width:0.26458332px;stroke-linecap:butt;stroke-linejoin:miter;stroke-opacity:1"
       d="m 67.880454,76.933124 50.339576,9e-5 M 30.058264,48.749497 V 11.23837 m 16.9764,8.120327 3.93794,-1.504993 4.39035,-1.272204 4.20674,-1.021105 m 0,0 1.34179,-0.237159 2.5711,-0.350802 2.57111,-0.242037 2.5711,-0.131343 2.5711,-0.01951 2.5711,0.09294 2.5711,0.205525 2.57111,0.317969 2.56368,0.428802 0.007,0.0014 2.57111,0.583166 2.5711,0.701456 1.97402,0.629938 0.59708,0.204 2.5711,1.009269 1.59052,0.702617 0.98059,0.465533 2.5711,1.357411 0.15948,0.09294 2.41162,1.516687 0.581306,0.3992 1.98979,1.482718 0.53573,0.433169 2.03537,1.797046 0.12473,0.118837 1.82163,1.915886 0.62475,0.730695 0.9429,1.185192 1.35443,1.915887 0.27377,0.444919 0.84537,1.470964 0.94134,1.915886 0.78261,1.915886 0.002,0.0055 0.57545,1.910358 0.42671,1.915887 0.27582,1.915885 0.12472,1.915888 -0.0262,1.915882 -0.17627,1.915888 -0.32481,1.915887 -0.47077,1.91588 -0.40469,1.271347 -0.22645,0.644538 -0.81655,1.915887 -0.9576,1.915888 -0.5705,1.016222 -0.56791,0.899663 -1.31954,1.915885 -0.68365,0.942012 -0.81349,0.973873 -1.62585,1.915888 -0.13176,0.166817 -1.65078,1.749069 -0.92032,1.18879 -0.70539,0.72709 -0.8287,1.91589 1.53409,1.38134 0.53651,0.53455 2.03459,0.18594 2.5711,0.26755 2.5711,0.29674 2.5711,0.32416 2.57111,0.35003 2.5711,0.37452 0.74433,0.11694 m -88.161896,-65.694794 0.15693,0.554651 0.5026,1.915883 0.46974,1.915887 0.43502,1.915887 0.39822,1.915886 0.35905,1.915883 0.24954,1.516102 0.71736,0.399785 1.85374,1.143145 2.5711,-0.617517 0.97576,-0.525628 1.59535,-0.685789 2.34723,-1.230098 0.22387,-0.09818 2.5711,-1.211524 1.30693,-0.606178 0.24286,-0.09787 m 4.24929,38.352994 10.80571,7.429823 m -10.80571,-7.429823 -0.65688,-0.529164 -1.60519,-1.324141 -0.96591,-0.838658 -1.22869,-1.077227 -1.34241,-1.247434 -0.72671,-0.668446 -1.84439,-1.809409 -0.1132,-0.106479 -1.87558,-1.915887 -0.58232,-0.648518 -1.27241,-1.267364 -1.2987,-1.413624 -0.61071,-0.502264 -1.96039,-1.762358 -0.68977,-0.153527 -1.88133,-0.451083 -0.099,0.451083 -0.5424,1.915885 -0.70635,1.915888 -0.90584,1.915882 -0.31749,0.554651 m 37.82219,28.183627 0.74434,-0.23658 2.5711,-0.67499 2.5711,-0.52635 2.5711,-0.40417 0.60535,-0.0738 -0.60535,-1.4019 -0.20603,-0.51399 -2.36507,-1.46081 -0.67403,-0.45507 -1.89707,-0.96774 -1.7008,-0.94815 -0.8703,-0.43393 -2.5711,-1.397604 -0.1429,-0.08435 -2.42821,-1.37437 -0.89705,-0.541517 -0.49587,-0.296297"
       inkscape:connector-curvature="0"
       sodipodi:nodetypes="ccccccccccccccccccccccccccccccccccccccccccccccccccccccccccccccccccccccccccccccccccccccccccccccccccccccccccccccccccccccccccccccccccccccc" />
    <rect
       style="fill:url(#pattern11084);stroke:none"
       width="9.1200724"
       height="18.259197"
       x="137.6535"
       y="45.398674"
       id="rect11087" />
    <rect
       style="fill:url(#pattern11179);stroke:none"
       width="53.133953"
       height="76.313164"
       x="37.060417"
       y="78.597404"
       id="rect11161" />
    <g
       transform="matrix(0.35277777,0,0,-0.35277777,187.97144,197.65079)"
       id="g88">
      <g
         id="g90"
         clip-path="url(#clipPath94)">
        <path
           d="m 331.6189,304.128 -0.40183,-5.43086 -0.40182,-5.43085 -0.40183,-5.43086 -0.40183,-5.43086 -0.40182,-5.43086 -0.40183,-5.43085 -0.40183,-5.43086 -0.40183,-5.43086 -0.40183,-5.43085 -0.40182,-5.43086 -0.33859,-4.57614 -0.0938,-0.85472 -0.59597,-5.43086 -0.59597,-5.43085 -0.59597,-5.43086 -0.59597,-5.43086 -0.35493,-3.23442"
           style="fill:none;stroke:#000000;stroke-width:1.5;stroke-linecap:butt;stroke-linejoin:round;stroke-miterlimit:10;stroke-dasharray:none;stroke-opacity:1"
           id="path96"
           inkscape:connector-curvature="0" />
        <path
           d="m 320.37157,182.45271 -0.35494,-3.23442 -0.0428,-0.38962 -0.8708,-5.04124 -0.9381,-5.43086 -0.9381,-5.43086 -0.9381,-5.43085 -0.9381,-5.43086 -0.9381,-5.43086 -0.9381,-5.43085 -0.78877,-4.56636 -0.25478,-0.8645 -1.6006,-5.43086 -1.60059,-5.43086 -1.6006,-5.43085 -1.60059,-5.43086 -0.631,-2.14098 -1.8565,-3.28988 -3.06467,-5.43085 -2.36699,-4.194527 -1.59653,-1.236334 -5.69164,-4.407558 -4.12739,-1.0233 -3.16077,-0.783647 -7.28816,-0.296541 -7.28817,-0.0048 -7.28816,0.176152 -4.89129,0.908837 -2.39687,0.445358 -7.28816,4.637202 -0.22802,0.348298 -3.55526,5.43086 -3.50489,5.35389 -0.0256,0.077 -1.80327,5.43086 -1.80326,5.43086 -1.80327,5.43085 -1.80326,5.43086 -0.0496,0.14923 -1.00782,5.28163 -1.03629,5.43086 -1.03629,5.43085 -1.0363,5.43086 -1.03629,5.43086 -1.03629,5.43085 -1.0363,5.43086 -0.0626,0.32802 -0.60991,5.10284 -0.64912,5.43086 -0.64912,5.43085 -0.64912,5.43086 -0.64912,5.43086 -0.64911,5.43085 -0.64913,5.43086 -0.64911,5.43086 -0.64912,5.43086 -0.64912,5.43085 -0.64912,5.43086 -0.18706,1.565 -0.30825,3.86586 -0.43304,5.43085 -0.43304,5.43086 -0.43304,5.43086 -0.43304,5.43086 -0.43304,5.43085 -0.43305,5.43086 -0.43304,5.43086 -0.43304,5.43085 -0.43304,5.43086 -0.43304,5.43086 -0.43304,5.43086 -0.43304,5.43085 -0.43304,5.43086"
           style="fill:none;stroke:#000000;stroke-width:1.5;stroke-linecap:butt;stroke-linejoin:round;stroke-miterlimit:10;stroke-dasharray:none;stroke-opacity:1"
           id="path98"
           inkscape:connector-curvature="0" />
      </g>
    </g>
    <path
       style="fill:url(#pattern11584);fill-opacity:1;fill-rule:evenodd;stroke:#000000;stroke-width:0.26458332px;stroke-linecap:butt;stroke-linejoin:miter;stroke-opacity:1"
       d="m 205.33218,106.38808 42.19831,1e-5 -1.3897,20.63366 -1.14659,9.24566 -1.43152,13.04502 -0.1614,1.29585 -2.55002,14.86729 -2.5711,8.72381 -2.5711,4.55622 -2.5711,1.99104 -2.5711,0.63745 -7.71331,0.0442 -2.5711,-0.47773 -2.5711,-1.6359 -2.5711,-3.9275 -2.57114,-7.74335 -2.57111,-13.47427 -2.6447,-21.86918 z"
       id="path11210"
       inkscape:connector-curvature="0" />
    <path
       style="opacity:1;fill:url(#pattern11084);fill-opacity:1.0;fill-rule:evenodd;stroke:#000000;stroke-width:0.75590551;stroke-linecap:butt;stroke-linejoin:miter;stroke-miterlimit:4;stroke-dasharray:none;stroke-opacity:1"
       d="m 284.9375,717.36133 7.64062,97.93555 3.9004,32.26171 -2.17188,-0.68164 -9.5957,-2.65039 -10.98633,-2.58789 -7.35352,-1.29492 -9.37695,-1.32617 -3.50391,-0.34766 -9.20312,-0.7207 -9.44336,-0.40234 -10.33398,0.0664 -9.70899,0.49219 -9.82226,0.89258 -9.6875,1.42773 -5.07813,0.8457 -15.68164,3.75391 -16.81055,4.91406 -14.88476,5.6875 -16.41992,7.61133 -8.8711,4.64844 -6.0293,2.5918 -3.68945,1.98828 -9.716795,2.33398 -9.716797,-5.83203 -1.091797,-6.89063 -2.054687,-10.44531 -1.830078,-7.99219 -1.517578,-6.78515 -3.22461,-11.91992 v 141.77539 l 4.623047,-9.33789 2.261719,-5.98633 0.408203,-1.25391 1.511719,-5.23828 0.914062,-3.70898 9.716797,2.28515 9.716795,8.5586 9.65235,10.13867 2.16601,2.51953 7.29297,7.22852 8.17578,8.01757 12.68945,11.49024 11.09375,9.16017 40.8418,28.0801 12.27344,7.1757 12.31055,6.7559 3.3789,1.6719 3.84961,2.1465 5.30469,2.9043 4.46875,2.1894 11.48633,7.2422 3.06836,7.2402 -11.35352,1.6368 -10.13281,2.1152 -12.76758,3.4883 190.25977,0 -22.9336,-3.2969 -17.27539,-2.1875 -18.88281,-1.7578 -7.82422,-7.2402 3.13086,-7.2422 2.66601,-2.748 3.47852,-4.4922 6.24024,-6.6114 10.18359,-12.1699 7.30078,-10.4609 2.09961,-3.4375 2.1875,-3.7051 1.78516,-3.6621 1.65234,-3.3926 0.65039,-1.51365 3.6875,-0.91406 9.7168,-7.52344 9.71875,-17.2207 9.71679,-32.97266 9.63868,-56.1914 0.60937,-4.89649 5.41016,-49.30468 4.33398,-34.94532 5.25195,-77.98437 z"
       transform="scale(0.26458333)"
       id="path9574-5"
       inkscape:connector-curvature="0" />
  </g>
</svg>
